<svg width="60.000000" height="60.000000" viewBox="0 0 60 60" fill="none" xmlns="http://www.w3.org/2000/svg" xmlns:xlink="http://www.w3.org/1999/xlink">
	<desc>
			Created with Pixso.
	</desc>
	<defs/>
	<rect id="icon-bowls-and-cups" width="59.999996" height="60.000000" fill="#FFFFFF" fill-opacity="0"/>
	<path id="bowls-and-cups" d="M59.9851 39.8552L57.1255 20.644C57.0791 15.0657 53.6929 9.89307 47.8159 6.43774C42.9482 3.57617 36.6213 2 30 2C23.3787 2 17.0515 3.57617 12.1838 6.43774C6.30688 9.89307 2.92065 15.0657 2.87427 20.644L0.0148926 39.8552C0.00512695 39.9216 0 39.9888 0 40.0559C0 45.7048 3.7644 50.936 10.3284 54.408C15.7021 57.2505 22.6882 58.8157 30 58.8157C37.3115 58.8157 44.2979 57.2505 49.6716 54.408C56.2354 50.936 60 45.7048 60 40.0559C60 39.9888 59.9949 39.9216 59.9851 39.8552ZM13.5667 8.79004C18.0215 6.17114 23.8577 4.72876 30 4.72876C36.1423 4.72876 41.9785 6.17114 46.4331 8.79004C51.4956 11.7664 54.3992 16.1292 54.3992 20.76C54.3992 25.3906 51.4956 29.7534 46.4331 32.73C41.9785 35.3489 36.1423 36.7913 30 36.7913C23.8577 36.7913 18.0215 35.3489 13.5669 32.73C8.50439 29.7537 5.60083 25.3906 5.60083 20.76C5.60083 16.1292 8.50439 11.7664 13.5667 8.79004ZM30 34.0618C39.3535 34.0618 47.6079 30.4426 50.5398 25.0569C51.29 23.6802 51.6707 22.2344 51.6707 20.7598C51.6707 17.0676 49.3193 13.6519 45.05 11.1421C41.0085 8.76636 35.6636 7.45801 30 7.45801C24.3367 7.45801 18.9917 8.76636 14.9502 11.1423C10.6807 13.6521 8.32935 17.0676 8.32935 20.76C8.32935 22.2346 8.70996 23.6804 9.45996 25.0564C12.3923 30.4426 20.6467 34.0618 30 34.0618ZM11.0579 20.76C11.0581 18.0745 12.9314 15.4941 16.3328 13.4944C19.9617 11.3613 24.8154 10.1865 30 10.1865C35.1846 10.1865 40.0383 11.3613 43.6672 13.4946C47.0686 15.4941 48.9421 18.0742 48.9421 20.76C48.9421 20.9993 48.9258 21.238 48.896 21.4761C45.1333 17.3699 37.9658 14.7446 30 14.7446C22.0342 14.7446 14.8669 17.3699 11.104 21.4761C11.0737 21.2385 11.0583 20.9995 11.0579 20.76ZM30 31.3333C22.1545 31.3333 15.0283 28.5144 12.2556 24.4006C15.0293 20.2891 22.1567 17.4731 30 17.4731C37.8435 17.4731 44.9709 20.2891 47.7446 24.4009C44.9727 28.5144 37.8457 31.3333 30 31.3333ZM23.8843 23.8977L23.4636 23.8977C22.7102 23.8977 22.0994 24.5085 22.0994 25.262C22.0994 26.0156 22.7102 26.6262 23.4636 26.6262L23.8843 26.6262C24.6379 26.6262 25.2485 26.0156 25.2485 25.262C25.2485 24.5085 24.6379 23.8977 23.8843 23.8977ZM30.342 23.8977L40.074 23.8977C40.8276 23.8977 41.4382 24.5085 41.4382 25.262C41.4382 26.0156 40.8276 26.6262 40.074 26.6262L30.342 26.6262C29.5884 26.6262 28.9775 26.0156 28.9775 25.262C28.9775 24.5085 29.5884 23.8977 30.342 23.8977ZM48.3958 51.9958C43.408 54.6343 36.875 56.0872 30 56.0872C23.125 56.0872 16.592 54.6343 11.6042 51.9958C6.00366 49.0334 2.77441 44.7217 2.72925 40.1536L4.60767 27.5342C6.17236 30.4612 8.75293 33.0645 12.1841 35.0818C17.0518 37.9434 23.3787 39.5195 30 39.5195C36.6213 39.5195 42.9485 37.9434 47.8159 35.0818C51.2473 33.0645 53.8279 30.4609 55.3926 27.5342L57.271 40.1536C57.2256 44.7219 53.9963 49.0334 48.3958 51.9958ZM29.4634 41.8801C29.6328 41.8076 29.8154 41.77 30 41.77C30.1846 41.77 30.3672 41.8076 30.5369 41.8801C30.7063 41.9526 30.8596 42.0591 30.9871 42.1924C31.8755 43.1235 34.7751 46.3364 34.7751 48.5916C34.7751 51.2246 32.6331 53.3667 30 53.3667C27.3669 53.3667 25.2251 51.2246 25.2251 48.5916C25.2251 46.3364 28.1243 43.1235 29.0129 42.1924C29.1404 42.0591 29.2937 41.9526 29.4634 41.8801ZM27.9536 48.5918C27.9536 49.7202 28.8716 50.6382 30 50.6382C31.1284 50.6382 32.0464 49.7202 32.0464 48.5918C32.0464 47.9858 31.0942 46.5227 30 45.1941C28.9058 46.5225 27.9536 47.9858 27.9536 48.5918Z" fill="#F1CDB3" fill-opacity="1.000000" fill-rule="evenodd"/>
</svg>
