<svg width="60.000000" height="60.000000" viewBox="0 0 60 60" fill="none" xmlns="http://www.w3.org/2000/svg" xmlns:xlink="http://www.w3.org/1999/xlink">
	<desc>
			Created with Pixso.
	</desc>
	<defs/>
	<rect id="icon-toys" width="60.000000" height="60.000000" fill="#FFFFFF" fill-opacity="0"/>
	<path id="toys" d="M30 0C38.0132 0 45.5469 3.12061 51.2131 8.78662C56.8796 14.4531 60 21.9866 60 30C60 38.0134 56.8796 45.5469 51.2131 51.2134C45.5469 56.8794 38.0132 60 30 60C21.9868 60 14.4531 56.8794 8.78687 51.2134C3.12036 45.5469 0 38.0134 0 30C0 21.9866 3.12036 14.4531 8.78687 8.78662C14.4531 3.12061 21.9868 0 30 0ZM53.7493 33.6973C54.8813 33.8652 56.0063 33.9551 57.1072 33.9661C57.2322 33.1003 57.3159 32.2295 57.3586 31.356C57.3418 31.356 57.3252 31.3569 57.3083 31.3569C56.2729 31.3569 55.21 31.2769 54.1326 31.1167C53.4199 31.0107 52.928 30.3477 53.0339 29.635C53.1396 28.9224 53.8035 28.4304 54.5159 28.5364C55.4854 28.6804 56.4368 28.7502 57.3623 28.7483C57.0564 21.9021 54.2461 15.5088 49.3687 10.6316C44.3467 5.60913 37.8433 2.94946 31.2522 2.65063C31.25 3.57031 31.3206 4.51904 31.4639 5.48438C32.2517 10.7876 35.1016 16.1243 39.4888 20.5115C39.998 21.021 39.998 21.8469 39.4888 22.3562C38.9795 22.8655 38.1533 22.8655 37.644 22.3562C32.864 17.5762 29.7527 11.7205 28.8833 5.86768C28.7214 4.77759 28.6431 3.70264 28.645 2.65552C27.7712 2.69824 26.8999 2.78271 26.0339 2.9082C26.0454 4.00366 26.1355 5.12378 26.3027 6.25098C27.2539 12.6531 30.6265 19.0278 35.7993 24.2007C40.9719 29.3735 47.3467 32.7461 53.7493 33.6973ZM35.9248 56.7349C40.855 55.6504 45.5417 53.1951 49.3684 49.3684C52.9617 45.7754 55.4324 41.3594 56.6074 36.5459L56.5957 36.5654C55.5142 36.5334 54.4358 36.4373 53.366 36.2776C46.4138 35.2446 39.5203 31.6111 33.9546 26.0452C28.3889 20.4795 24.7551 13.5859 23.7224 6.63428C23.5632 5.56738 23.4673 4.49219 23.4348 3.41406C18.74 4.56519 14.2922 6.97046 10.6316 10.6313C6.88306 14.3799 4.35596 19.0237 3.24756 24.0806L3.25464 24.0747C4.17773 24.1182 5.09814 24.2083 6.01221 24.3445C12.9639 25.3772 19.8574 29.011 25.4233 34.5767C30.989 40.1423 34.623 47.0359 35.6558 53.9878C35.7913 54.8984 35.8811 55.8152 35.9248 56.7349ZM45.2295 26.1572C45.4744 25.9131 45.8059 25.7756 46.1516 25.7751C46.4976 25.7756 46.8291 25.9131 47.074 26.1572C47.3164 26.3997 47.4561 26.7363 47.4561 27.0793C47.4548 27.425 47.3176 27.7563 47.074 28.0015C46.8313 28.2441 46.4946 28.3835 46.1516 28.3835C45.8086 28.3835 45.4722 28.2441 45.2295 28.0015C44.9856 27.7588 44.8474 27.4224 44.8474 27.0793C44.8479 26.7336 44.9854 26.4021 45.2295 26.1572ZM30.4946 54.7544C30.624 55.6204 30.7012 56.4932 30.7263 57.3682C31.5969 57.3455 32.4661 57.2815 33.3308 57.1763C33.2986 56.2371 33.2134 55.3003 33.075 54.3708C32.124 47.9688 28.7512 41.594 23.5784 36.4214C18.4055 31.2483 12.0308 27.8757 5.62866 26.9248C4.68237 26.7842 3.73804 26.6987 2.80835 26.6682C2.70483 27.5283 2.64111 28.3972 2.61841 29.2732C3.4978 29.2976 4.375 29.3752 5.24512 29.5051C11.0979 30.3748 16.9539 33.4858 21.7339 38.2659C26.5139 43.0459 29.625 48.9019 30.4946 54.7544ZM2.67358 31.8833C3.11914 38.4905 5.9043 44.6416 10.6313 49.3684C15.4927 54.2297 21.7419 56.8774 28.1155 57.3132C28.0894 56.585 28.0222 55.8586 27.9143 55.1379C27.1265 49.8345 24.2766 44.4978 19.8894 40.1106C15.5022 35.7234 10.1655 32.8733 4.8623 32.0857C4.12231 31.9756 3.38989 31.9077 2.67358 31.8833Z" fill="#F1CDB3" fill-opacity="1.000000" fill-rule="evenodd"/>
</svg>
