<svg width="60.000000" height="59.999756" viewBox="0 0 60 59.9998" fill="none" xmlns="http://www.w3.org/2000/svg" xmlns:xlink="http://www.w3.org/1999/xlink">
	<desc>
			Created with Pixso.
	</desc>
	<defs/>
	<rect id="icon-sleeping-area" width="60.000000" height="59.999847" fill="#FFFFFF" fill-opacity="0"/>
	<path id="sleeping-area" d="M30.9802 0.226318L57.9524 19.9663C58.2661 20.1958 58.4324 20.5518 58.4324 20.9128C58.4324 21.1528 58.3586 21.3953 58.2058 21.604L54.6804 26.4211C54.5896 26.5452 54.4751 26.6504 54.3438 26.7302C54.2122 26.8103 54.0662 26.8635 53.9141 26.8872C53.7622 26.9106 53.6069 26.9041 53.4573 26.8674C53.3079 26.8311 53.167 26.7654 53.0427 26.6746L52.0408 25.9414L52.0408 58.8279C52.0408 59.4751 51.5161 59.9998 50.8689 59.9998L9.76929 59.9998C9.12207 59.9998 8.59741 59.4751 8.59741 58.8279L8.59741 25.896L7.53345 26.6746C7.40942 26.7654 7.26855 26.8311 7.1189 26.8677C6.96948 26.9041 6.81421 26.9106 6.66211 26.8872C6.51001 26.8638 6.36401 26.8103 6.23242 26.7305C6.10107 26.6504 5.98657 26.5454 5.89575 26.4211L2.37036 21.604C2.21753 21.3955 2.14404 21.1531 2.14404 20.9128C2.14404 20.552 2.3103 20.1958 2.62378 19.9663L29.5959 0.226318C29.7969 0.0793457 30.0393 0 30.2881 0C30.5371 0 30.7795 0.0793457 30.9802 0.226318ZM30.9802 7.62354L53.4814 24.0911L55.6228 21.1655L30.2883 2.62402L4.95386 21.1655L7.09497 24.0911L29.5959 7.62354C29.7969 7.47632 30.0393 7.39697 30.2881 7.39722C30.5371 7.39722 30.7795 7.47632 30.9802 7.62354ZM21.9714 53.0854L49.697 53.0854L49.697 24.2261L30.2881 10.0212L12.8811 22.7612L38.3843 22.7612C39.0312 22.7612 39.5562 23.2861 39.5562 23.9331C39.5562 24.5803 39.0312 25.105 38.3843 25.105L10.9409 25.105L10.9409 57.6562L49.697 57.6562L49.697 55.4292L21.9714 55.4292C21.3245 55.4292 20.7996 54.9045 20.7996 54.2573C20.7996 53.6104 21.3245 53.0854 21.9714 53.0854ZM43.6875 23.4841C43.7168 23.5557 43.7402 23.6294 43.7554 23.7046C43.7705 23.7795 43.7776 23.8569 43.7776 23.9331C43.7776 24.0093 43.7705 24.0864 43.7554 24.1616C43.7402 24.2366 43.7168 24.3105 43.6875 24.3818C43.6582 24.4521 43.6218 24.5203 43.5796 24.5835C43.5374 24.6479 43.4883 24.7078 43.4343 24.7617C43.3804 24.8154 43.3206 24.8647 43.2561 24.907C43.1929 24.949 43.125 24.9854 43.0535 25.0146C42.9829 25.0447 42.9094 25.0669 42.8342 25.0815C42.7593 25.0967 42.6819 25.105 42.6057 25.105C42.5298 25.105 42.4524 25.0967 42.3774 25.0815C42.3022 25.0674 42.2285 25.0439 42.1582 25.0146C42.0867 24.9854 42.0188 24.949 41.9556 24.907C41.8911 24.8647 41.8313 24.8154 41.7773 24.7617C41.7234 24.7075 41.6743 24.6479 41.6321 24.5835C41.5898 24.5203 41.5535 24.4521 41.5242 24.3818C41.4949 24.3103 41.4714 24.2363 41.4575 24.1616C41.4421 24.0867 41.4341 24.0093 41.4341 23.9331C41.4341 23.8569 41.4421 23.7795 41.4575 23.7046C41.4714 23.6294 41.4949 23.5557 41.5242 23.4841C41.5535 23.4138 41.5898 23.3459 41.6321 23.2827C41.6743 23.2183 41.7234 23.1584 41.7773 23.1045C41.9951 22.8865 42.2976 22.761 42.6057 22.761C42.9163 22.762 43.2141 22.8855 43.4343 23.1045C43.4888 23.1587 43.5374 23.2185 43.5796 23.2827C43.6218 23.3459 43.6582 23.4138 43.6875 23.4841ZM43.7471 27.948C44.4548 28.6475 44.8447 29.5803 44.8447 30.5742C44.8447 30.6416 44.8428 30.7092 44.8394 30.7776C44.7158 33.0901 44.3945 35.3877 43.8787 37.6453C44.0342 38.0439 44.1697 38.4497 44.2852 38.8618C44.4373 39.4084 44.5527 39.9648 44.6313 40.5269C44.6899 40.9482 44.7188 41.3684 44.7188 41.7852C44.7188 43.9617 43.928 46.0496 42.4316 47.7686C40.4858 50.0034 37.6025 51.2852 34.5203 51.2852L26.0566 51.2852C20.4336 51.2852 15.8589 47.0173 15.8589 41.7715C15.8594 41.3552 15.8882 40.9397 15.9456 40.5276C16.083 39.5405 16.3359 38.573 16.6987 37.6445C16.4548 36.5776 16.2542 35.5012 16.0969 34.418C15.9219 33.2095 15.802 31.9939 15.7375 30.7744C15.7339 30.7065 15.7322 30.6387 15.7322 30.571C15.7322 29.4602 16.2185 28.4287 17.0859 27.717C18.0063 26.9619 19.1958 26.6978 20.3491 26.9915C20.3596 26.9941 20.3701 26.9971 20.3804 27C22.55 27.5557 24.6699 28.2903 26.7183 29.1965C27.2263 29.0762 27.7402 28.9817 28.2578 28.9133C28.9282 28.8257 29.6113 28.7812 30.2883 28.7812C31.4905 28.7805 32.6887 28.9199 33.8586 29.1965C35.907 28.2903 38.0273 27.5554 40.1973 26.9998C40.4954 26.9209 40.8018 26.8794 41.1099 26.876C42.0874 26.8677 43.0461 27.2554 43.7471 27.948ZM42.4985 30.6511L42.4985 30.647C42.4998 30.6245 42.5005 30.6023 42.5005 30.5801L42.5005 30.574L42.5005 30.5708C42.5005 30.3933 42.4651 30.2178 42.3965 30.054C42.3276 29.8892 42.2266 29.74 42.0991 29.615C41.8442 29.3633 41.4983 29.2195 41.1479 29.2195L41.1328 29.2195C41.0298 29.2207 40.9275 29.2334 40.8274 29.2573C38.6401 29.8145 36.5066 30.5647 34.4519 31.499C34.2048 31.6113 33.9263 31.6343 33.6641 31.5647C32.5713 31.2729 31.4353 31.125 30.2876 31.125C29.7119 31.125 29.1311 31.1628 28.562 31.2371C28.0051 31.3105 27.4536 31.4199 26.9109 31.5647C26.6484 31.6345 26.3696 31.6111 26.1223 31.4985C24.075 30.5674 21.9492 29.8193 19.77 29.2632L19.7466 29.2571C19.6409 29.2319 19.5344 29.2195 19.429 29.2195C19.1196 29.2195 18.8193 29.3259 18.572 29.5291C18.2537 29.79 18.0754 30.1682 18.0754 30.5759C18.0754 30.6008 18.0759 30.6257 18.0774 30.6509C18.1382 31.7991 18.251 32.9438 18.4158 34.0818C18.5811 35.2205 18.7974 36.3508 19.064 37.4697C19.0852 37.5593 19.0959 37.6506 19.0959 37.7415C19.0959 37.8984 19.0645 38.0547 19.0022 38.2007C18.6411 39.0474 18.3938 39.938 18.2664 40.8496C18.2239 41.1575 18.2021 41.4678 18.2021 41.7715C18.2021 45.7249 21.7256 48.9414 26.0562 48.9414L34.5198 48.9414C36.9238 48.9414 39.1628 47.9529 40.6633 46.2295C41.7822 44.9443 42.3735 43.3894 42.3735 41.7742C42.3735 41.4678 42.3523 41.1592 42.3093 40.8496C42.2451 40.3909 42.1509 39.937 42.0269 39.4907C41.9036 39.051 41.7522 38.6199 41.5735 38.1997C41.5117 38.054 41.4802 37.8979 41.4802 37.7415C41.4802 37.6504 41.491 37.5593 41.5122 37.4697C42.0459 35.2312 42.376 32.949 42.4985 30.6511ZM37.1016 37.3687L38.8423 38.1663C39.2725 38.3633 39.5264 38.7881 39.5264 39.2322C39.5264 39.3955 39.4919 39.5615 39.4194 39.7197C39.2224 40.1499 38.7976 40.4036 38.3535 40.4036C38.1851 40.4036 38.0188 40.3672 37.866 40.2969L36.6135 39.7229L35.3608 40.2969C34.7725 40.5669 34.0769 40.3083 33.8074 39.7197C33.7349 39.5615 33.7004 39.3955 33.7004 39.2322C33.7004 38.7881 33.9543 38.3633 34.3845 38.1663L36.1252 37.3687C36.2786 37.2983 36.4448 37.262 36.6135 37.262C36.782 37.262 36.9485 37.2983 37.1016 37.3687ZM24.4512 37.3689L26.1919 38.1663C26.6218 38.3633 26.8757 38.7881 26.8757 39.2324C26.8757 39.3958 26.8416 39.5615 26.769 39.7197C26.4995 40.3081 25.8035 40.5669 25.2156 40.2971L23.9629 39.7231L22.7102 40.2971C22.5703 40.3611 22.4192 40.3972 22.2654 40.4028C22.1116 40.4084 21.9583 40.3838 21.814 40.3303C21.6697 40.2766 21.5374 40.1951 21.4248 40.0903C21.312 39.9856 21.2209 39.8596 21.1567 39.7197C21.0842 39.5615 21.05 39.3958 21.05 39.2324C21.05 38.7883 21.304 38.3635 21.7341 38.1663L23.4749 37.3689C23.6279 37.2986 23.7944 37.2622 23.9629 37.2622C24.1316 37.2622 24.2981 37.2986 24.4512 37.3689ZM31.46 42.5403C31.46 43.106 31.9204 43.5662 32.4861 43.5662C33.1331 43.5662 33.658 44.0908 33.658 44.738C33.658 45.3853 33.1331 45.9099 32.4861 45.9099C31.6902 45.9106 30.9197 45.6284 30.3127 45.1135C29.7192 45.6355 28.9412 45.9529 28.0903 45.9529C27.4431 45.9529 26.9185 45.428 26.9185 44.781C26.9185 44.1338 27.4431 43.6091 28.0903 43.6091C28.656 43.6091 29.1162 43.1487 29.1162 42.583L29.1162 42.5403C29.1162 41.8931 29.6409 41.3684 30.2881 41.3684C30.9353 41.3684 31.46 41.8931 31.46 42.5403ZM18.8318 53.8091C18.8611 53.8796 18.8835 53.9531 18.8984 54.0281C18.9136 54.1042 18.9219 54.1804 18.9219 54.2566C18.9211 54.4885 18.8523 54.7151 18.7239 54.9082C18.6819 54.9714 18.6326 55.0312 18.5786 55.0862C18.5244 55.1406 18.4648 55.1895 18.4006 55.2314C18.2078 55.3599 17.9817 55.4287 17.7502 55.4297C17.6741 55.4297 17.5967 55.4214 17.5205 55.4062C17.4465 55.3909 17.3728 55.3687 17.3013 55.3394C17.231 55.3101 17.1631 55.2737 17.0999 55.2314C17.0354 55.1895 16.9756 55.1401 16.9216 55.0862C16.8665 55.0312 16.8186 54.9714 16.7751 54.9082C16.7332 54.8438 16.6965 54.7759 16.6672 54.7053C16.6086 54.5645 16.5784 54.4131 16.5784 54.2605L16.5784 54.2566C16.5784 54.1804 16.5852 54.1042 16.6006 54.0281C16.6309 53.8774 16.6902 53.7341 16.7751 53.6062C16.8186 53.543 16.8665 53.4819 16.9216 53.4282C16.9753 53.3743 17.0354 53.325 17.0999 53.2827C17.1631 53.2407 17.231 53.2043 17.3013 53.175C17.3728 53.1458 17.4465 53.1235 17.5205 53.1082C17.6716 53.0776 17.8274 53.0776 17.9788 53.1082C18.1292 53.1384 18.2725 53.1978 18.4006 53.2827C18.4648 53.3262 18.5247 53.3743 18.5786 53.4282C18.6328 53.4827 18.6814 53.5422 18.7239 53.6062C18.7661 53.6694 18.8025 53.7385 18.8318 53.8091Z" fill="#F1CDB3" fill-opacity="1.000000" fill-rule="evenodd"/>
</svg>
