<svg width="60.000000" height="60.000000" viewBox="0 0 60 60" fill="none" xmlns="http://www.w3.org/2000/svg" xmlns:xlink="http://www.w3.org/1999/xlink">
	<desc>
			Created with Pixso.
	</desc>
	<defs/>
	<rect id="icon-collars-leashes" width="59.999996" height="60.000000" fill="#FFFFFF" fill-opacity="0"/>
	<path id="collars-or-leashes" d="M50.7617 6.93604C53.5393 7.88135 55.7378 8.99683 57.2969 10.2512C59.0903 11.6941 59.9998 13.2864 60 14.9829L60 28.0989C60 29.7957 59.0906 31.3879 57.2974 32.8308C55.7383 34.0852 53.5396 35.2004 50.762 36.1458C45.4775 37.9443 38.5591 38.9746 31.1719 39.0732L31.1719 43.7754L35.2131 43.7754C35.6609 41.4102 37.7434 39.6155 40.2371 39.6155C43.0564 39.6155 45.3501 41.9092 45.3501 44.7285C45.3516 45.9351 44.925 47.1033 44.146 48.0249C44.9153 48.9351 45.3501 50.0957 45.3501 51.3213C45.3501 54.1406 43.0564 56.4343 40.2371 56.4343C37.7434 56.4343 35.6609 54.6399 35.2131 52.2744L24.7869 52.2744C24.3391 54.6399 22.2566 56.4343 19.7629 56.4343C16.9436 56.4343 14.6499 54.1406 14.6499 51.3213C14.6484 50.1147 15.075 48.9465 15.854 48.0249C15.0847 47.1147 14.6499 45.9541 14.6499 44.7285C14.6499 41.9092 16.9436 39.6155 19.7629 39.6155C22.2566 39.6155 24.3391 41.4099 24.7869 43.7754L28.8281 43.7754L28.8281 39.0732C21.4409 38.9746 14.5225 37.9443 9.23804 36.1458C6.46021 35.2004 4.26172 34.0852 2.70264 32.8308C0.909424 31.3879 0 29.7957 0 28.0989L0 14.9829C0 13.2864 0.909424 11.6941 2.70264 10.2512C4.26172 8.99683 6.46021 7.88135 9.23779 6.93604C14.801 5.04297 22.1743 4 29.9998 4C37.825 4 45.1985 5.04272 50.7617 6.93604ZM57.624 15.3589C57.6353 15.2913 57.6433 15.2231 57.6484 15.1548C57.6528 15.0974 57.656 15.0403 57.656 14.9829C57.656 10.8967 46.2981 6.34375 29.9998 6.34375C13.7017 6.34375 2.34375 10.8967 2.34375 14.9829C2.34399 15.0405 2.34644 15.0979 2.35132 15.155C2.35645 15.2234 2.3645 15.2915 2.37573 15.3591L2.3772 15.3699C2.38745 15.4275 2.39966 15.4846 2.41382 15.5415C2.42993 15.6069 2.44849 15.6716 2.46973 15.7356C2.4729 15.7451 2.47607 15.7551 2.47949 15.7649C2.49634 15.8142 2.51538 15.8633 2.5354 15.9126C2.54541 15.9365 2.55518 15.9607 2.56592 15.9846C2.57812 16.0129 2.59155 16.041 2.60498 16.0696C2.63208 16.1262 2.6604 16.1829 2.69116 16.2388L2.69922 16.2539C3.18701 17.1338 4.10742 17.9038 5.02148 18.5049C6.23535 17.8054 8.18213 16.9124 11.1697 16.0747C16.4131 14.6047 23.1001 13.7952 30 13.7952C36.8997 13.7952 43.5869 14.6047 48.8301 16.0747C51.8179 16.9124 53.7646 17.8054 54.9785 18.5046C55.8926 17.9036 56.813 17.1338 57.3005 16.2537L57.3088 16.2388C57.3396 16.1829 57.3679 16.1262 57.3948 16.0696C57.4082 16.041 57.4219 16.0127 57.4341 15.9844C57.4658 15.9124 57.4946 15.8389 57.5205 15.7646L57.53 15.7354C57.5466 15.6851 57.5615 15.6345 57.575 15.5835C57.594 15.5129 57.6099 15.4417 57.6226 15.3696L57.624 15.3589ZM43.4829 9.8606C39.4456 9.10083 34.8499 8.69946 30.1936 8.69946C23.7488 8.69946 17.5186 9.46436 12.6504 10.8535C12.0281 11.0312 11.6675 11.6797 11.8452 12.302C11.9919 12.8171 12.4609 13.1526 12.9712 13.1526C13.0776 13.1526 13.186 13.1382 13.2935 13.1074C17.9583 11.7764 23.96 11.0432 30.1934 11.0432C34.707 11.0432 39.1526 11.4307 43.0496 12.1641C43.6858 12.2834 44.2981 11.865 44.418 11.229C44.5376 10.5928 44.1189 9.98047 43.4829 9.8606ZM47.8567 11.0432C48.0198 11.2075 48.1309 11.4163 48.1765 11.6433C48.1919 11.7192 48.2 11.7954 48.2 11.8718C48.2 11.949 48.1919 12.0251 48.1765 12.1013C48.1462 12.252 48.0869 12.3953 48.002 12.5232C47.96 12.5867 47.9106 12.6462 47.8567 12.7014C47.8027 12.7554 47.7417 12.8035 47.6785 12.8467C47.6143 12.8889 47.5461 12.9253 47.4758 12.9546C47.4058 12.9839 47.3318 13.0061 47.2568 13.0212C47.1819 13.0366 47.1045 13.0447 47.0283 13.0447C46.9521 13.0447 46.8748 13.0366 46.7986 13.0212C46.7236 13.0061 46.6509 12.9839 46.5793 12.9546C46.509 12.9253 46.4412 12.8889 46.3779 12.8467C46.3135 12.8035 46.2537 12.7554 46.1985 12.7014C46.1445 12.6462 46.0967 12.5867 46.0532 12.5232C45.9683 12.3953 45.9089 12.252 45.8787 12.1013C45.8635 12.0251 45.8564 11.949 45.8564 11.8718C45.8564 11.7957 45.8635 11.7195 45.8787 11.6433C45.9089 11.4927 45.9683 11.3494 46.0532 11.2214C46.0967 11.158 46.1445 11.0972 46.1985 11.0432C46.2537 10.9893 46.3135 10.9402 46.3779 10.8979C46.4412 10.8557 46.509 10.8193 46.5793 10.79C46.6509 10.7607 46.7236 10.7385 46.7986 10.7234C46.9497 10.6929 47.1055 10.6929 47.2568 10.7234C47.4072 10.7537 47.5505 10.813 47.6785 10.8979C47.7424 10.9404 47.8022 10.989 47.8567 11.0432ZM11.8025 18.3313C9.94629 18.8518 8.55005 19.3877 7.5293 19.8542C12.3789 22.0154 20.3176 23.6223 29.9998 23.6223C39.6821 23.6223 47.6206 22.0156 52.4705 19.8542C51.4497 19.3875 50.0532 18.8516 48.197 18.3313C43.1543 16.9175 36.6917 16.1387 29.9998 16.1387C23.3081 16.1387 16.8452 16.9172 11.8025 18.3313ZM34.3965 36.6248C48.3044 35.8984 57.656 31.8066 57.656 28.0989L57.656 19.4141L57.6399 19.4272C57.5276 19.5254 57.4133 19.6213 57.2971 19.7151C57.1404 19.8403 56.9807 19.9619 56.8184 20.0796L56.8159 20.0813C56.7285 20.1448 56.6394 20.2083 56.5486 20.271L56.5078 20.2991C56.4226 20.3577 56.3357 20.4163 56.2473 20.4741L56.1936 20.509C56.1042 20.5671 56.0139 20.6252 55.9216 20.6826L55.8823 20.7065C54.4973 21.563 52.7837 22.3418 50.7617 23.03C45.1985 24.9233 37.8252 25.9661 29.9998 25.9661C22.1743 25.9661 14.801 24.9233 9.23779 23.03C7.21582 22.3418 5.50244 21.5632 4.11743 20.7068L4.07788 20.6824C3.9856 20.625 3.89551 20.5671 3.80615 20.5093C3.78809 20.4976 3.77002 20.4858 3.7522 20.4741C3.66382 20.416 3.57715 20.3577 3.4917 20.2988L3.45117 20.271C3.36035 20.208 3.27124 20.1448 3.18384 20.0811L3.1814 20.0793C3.0188 19.9617 2.85913 19.8401 2.70264 19.7148C2.58643 19.6213 2.47217 19.5254 2.35962 19.4272L2.34375 19.4138L2.34375 28.0989C2.34375 31.8069 11.6951 35.8987 25.6033 36.625C25.0994 35.8113 24.8328 34.8728 24.8337 33.9158C24.8335 33.5618 24.8699 33.209 24.9419 32.8625C21.9775 32.6831 19.1492 32.3445 16.5171 31.8491C15.8811 31.7295 15.4624 31.1169 15.582 30.4807C15.7017 29.8447 16.3149 29.426 16.9504 29.5459C19.7739 30.0771 22.8386 30.4214 26.0635 30.5752C27.0117 29.4592 28.4241 28.7493 29.9998 28.7493C31.5674 28.7493 32.9729 29.4519 33.9211 30.5576C38.679 30.3074 43.0898 29.6343 46.7063 28.6023C47.3291 28.4248 47.9771 28.7854 48.1548 29.4077C48.3325 30.03 47.9717 30.6785 47.3496 30.8562C43.8254 31.8618 39.6006 32.5403 35.0525 32.8386C35.1265 33.1863 35.1663 33.5464 35.1663 33.9155C35.1672 34.8728 34.9006 35.811 34.3965 36.6248ZM14.0542 29.3889C14.0835 29.4604 14.1057 29.5342 14.1211 29.6091C14.1362 29.6841 14.1431 29.7615 14.1431 29.8376C14.1436 29.9915 14.1133 30.1436 14.0542 30.2854C13.9956 30.428 13.9092 30.5574 13.7998 30.6663C13.7456 30.7207 13.686 30.7693 13.6218 30.8115C13.5583 30.8542 13.491 30.8904 13.4202 30.9194C13.3494 30.949 13.2761 30.9712 13.2009 30.9861C13.125 31.0015 13.0474 31.0095 12.9712 31.0095C12.8953 31.0095 12.8179 31.0015 12.7429 30.9861C12.6677 30.9722 12.594 30.9487 12.5237 30.9194C12.4521 30.8901 12.3843 30.855 12.321 30.8115C12.2566 30.7693 12.1968 30.7202 12.1428 30.6663C12.0889 30.6123 12.0398 30.5525 11.9976 30.488C11.9553 30.4248 11.9189 30.3569 11.8896 30.2854C11.8308 30.1433 11.8003 29.9915 11.7996 29.8376C11.7996 29.7615 11.8076 29.6841 11.823 29.6091C11.8381 29.5342 11.8604 29.4604 11.8896 29.3889C11.9189 29.3186 11.9553 29.2505 11.9976 29.1873C12.0398 29.1228 12.0889 29.063 12.1428 29.0093C12.1968 28.9553 12.2566 28.906 12.321 28.8628C12.3843 28.8206 12.4521 28.7854 12.5237 28.7561C12.594 28.7268 12.6677 28.7034 12.7429 28.6892C12.894 28.6587 13.0498 28.6587 13.2009 28.6892C13.2761 28.7041 13.3494 28.7266 13.4202 28.7561C13.4905 28.7854 13.5586 28.8206 13.6218 28.8628C13.6863 28.906 13.7461 28.9553 13.7998 29.0093C13.8547 29.0635 13.9038 29.123 13.9463 29.1873C13.9885 29.2505 14.0249 29.3186 14.0542 29.3889ZM27.1772 33.9158C27.1772 35.4722 28.4434 36.7383 29.9998 36.7383C31.5562 36.7383 32.8225 35.4722 32.8225 33.9158C32.8225 32.3594 31.5562 31.093 29.9998 31.093C28.4434 31.093 27.1772 32.3594 27.1772 33.9158ZM36.7654 46.0237C36.6191 46.0867 36.4614 46.1194 36.3022 46.1194L23.6975 46.1194C23.5381 46.1194 23.3804 46.0869 23.2341 46.0239C23.0876 45.9609 22.9556 45.8687 22.8462 45.7529C22.7366 45.6372 22.6519 45.5005 22.5972 45.3508C22.5422 45.2012 22.5186 45.042 22.5273 44.8828C22.53 44.8318 22.532 44.7803 22.532 44.7285C22.532 43.2017 21.2896 41.9595 19.7627 41.9595C18.2358 41.9595 16.9934 43.2017 16.9934 44.7285C16.9934 45.6643 17.4619 46.5303 18.2466 47.0454C18.4092 47.1521 18.5425 47.2974 18.6348 47.4683C18.7271 47.6394 18.7754 47.8306 18.7754 48.0251C18.7754 48.2195 18.7271 48.4106 18.6348 48.5818C18.5425 48.7527 18.4092 48.8982 18.2466 49.0046C17.4619 49.5198 16.9934 50.3857 16.9934 51.3215C16.9934 52.8484 18.2358 54.0906 19.7627 54.0906C21.2896 54.0906 22.532 52.8484 22.532 51.3215C22.532 51.2698 22.53 51.2183 22.5273 51.1672C22.5186 51.0083 22.5425 50.8489 22.5972 50.6995C22.6521 50.5498 22.7368 50.4128 22.8464 50.2971C22.9558 50.1814 23.0879 50.0894 23.2341 50.0264C23.3806 49.9634 23.5381 49.9307 23.6975 49.9307L36.3022 49.9307C36.4614 49.9307 36.6191 49.9631 36.7656 50.0261C36.9119 50.0891 37.0439 50.1814 37.1536 50.2971C37.2629 50.4128 37.3479 50.5496 37.4026 50.6992C37.4575 50.8489 37.4812 51.0083 37.4722 51.1672C37.4695 51.2183 37.4678 51.2698 37.4678 51.3215C37.4678 52.8484 38.71 54.0906 40.2371 54.0906C41.7639 54.0906 43.0061 52.8484 43.0061 51.3215C43.0061 50.3857 42.5376 49.5198 41.7529 49.0046C41.5906 48.8982 41.457 48.7527 41.3647 48.5818C41.2725 48.4106 41.2241 48.2195 41.2241 48.0251C41.2241 47.8306 41.2725 47.6394 41.3647 47.4683C41.457 47.2974 41.5906 47.1521 41.7529 47.0454C42.5376 46.5303 43.0061 45.6643 43.0061 44.7285C43.0061 43.2017 41.7639 41.9595 40.2371 41.9595C38.71 41.9595 37.4678 43.2017 37.4678 44.7285C37.4678 44.78 37.4695 44.8313 37.4722 44.8828C37.481 45.0417 37.4573 45.2012 37.4023 45.3506C37.3477 45.5002 37.2627 45.6372 37.1533 45.7529C37.0437 45.8687 36.9119 45.9607 36.7654 46.0237Z" fill="#F1CDB3" fill-opacity="1.000000" fill-rule="evenodd"/>
</svg>
