<svg aria-hidden="true" style="position: absolute; width: 0; height: 0; overflow: hidden;" version="1.1" xmlns="http://www.w3.org/2000/svg" xmlns:xlink="http://www.w3.org/1999/xlink">
<defs>
<symbol id="arrow" viewBox="0 0 32 32">
<path d="M32 13.714v4.571h-25.143v4.571l-6.857-6.857 6.857-6.857v4.571h25.143z"></path>
</symbol>
<symbol id="credit-card" viewBox="0 0 32 32">
<path d="M27.713 28.267h-23.427c-2.364 0-4.287-1.915-4.287-4.267v-16c0-2.353 1.923-4.267 4.287-4.267h23.426c2.363 0 4.287 1.914 4.287 4.267v16c0.001 2.352-1.923 4.267-4.287 4.267zM4.287 4.953c-1.689 0-3.062 1.366-3.062 3.047v16c0 1.681 1.373 3.047 3.062 3.047h23.426c1.688 0 3.062-1.367 3.062-3.047v-16c0-1.681-1.374-3.047-3.062-3.047h-23.426zM22.084 7.317c1.528 0 2.767 1.232 2.767 2.754s-1.239 2.755-2.767 2.755c-1.528 0-2.767-1.233-2.767-2.755s1.239-2.754 2.767-2.754zM25.942 7.317c1.528 0 2.768 1.232 2.768 2.754s-1.239 2.755-2.768 2.755c-1.529 0-2.767-1.233-2.767-2.755s1.239-2.754 2.767-2.754zM3.292 21.156h5.101v1.829h-5.101v-1.829zM10.064 21.156h5.102v1.829h-5.102v-1.829zM16.834 21.156h5.103v1.829h-5.103v-1.829zM23.606 21.156h5.103v1.829h-5.103v-1.829zM3.292 7.318h9.643v1.829h-9.643v-1.829zM3.292 10.946h5.102v1.829h-5.102v-1.829z"></path>
</symbol>
<symbol id="bowls-and-cups" viewBox="0 0 32 32">
<path fill="#f1cdb3" style="fill: var(--color1, #f1cdb3)" d="M31.992 21.256l-1.525-10.246c-0.025-2.975-1.831-5.734-4.965-7.577-2.596-1.526-5.97-2.367-9.502-2.367s-6.906 0.841-9.502 2.367c-3.134 1.843-4.94 4.602-4.965 7.577l-1.525 10.246c-0.005 0.035-0.008 0.071-0.008 0.107 0 3.013 2.008 5.803 5.508 7.654 2.866 1.516 6.592 2.351 10.492 2.351s7.626-0.835 10.492-2.351c3.501-1.852 5.508-4.642 5.508-7.654 0-0.036-0.003-0.072-0.008-0.107zM7.236 4.688c2.376-1.397 5.489-2.166 8.764-2.166s6.389 0.769 8.764 2.166c2.7 1.587 4.249 3.914 4.249 6.384s-1.549 4.796-4.249 6.384c-2.376 1.397-5.488 2.166-8.764 2.166s-6.389-0.769-8.764-2.166c-2.7-1.587-4.249-3.914-4.249-6.384s1.549-4.797 4.248-6.384zM16 18.166c4.989 0 9.391-1.93 10.955-4.803 0.4-0.734 0.603-1.505 0.603-2.292 0-1.969-1.254-3.791-3.531-5.129-2.155-1.267-5.006-1.965-8.027-1.965s-5.871 0.698-8.027 1.965c-2.277 1.339-3.531 3.16-3.531 5.129 0 0.786 0.203 1.558 0.603 2.291 1.564 2.873 5.966 4.803 10.955 4.803zM5.898 11.072c0-1.432 0.999-2.808 2.813-3.875 1.935-1.138 4.524-1.764 7.289-1.764s5.354 0.627 7.289 1.764c1.814 1.066 2.813 2.442 2.813 3.875 0 0.128-0.009 0.255-0.025 0.382-2.007-2.19-5.829-3.59-10.078-3.59s-8.071 1.4-10.078 3.59c-0.016-0.127-0.024-0.254-0.025-0.382zM16 16.711c-4.184 0-7.985-1.503-9.464-3.697 1.479-2.193 5.281-3.695 9.464-3.695s7.984 1.502 9.464 3.695c-1.478 2.194-5.279 3.697-9.464 3.697zM12.738 12.745h-0.224c-0.402 0-0.728 0.326-0.728 0.728s0.326 0.728 0.728 0.728h0.224c0.402 0 0.728-0.326 0.728-0.728s-0.326-0.728-0.728-0.728zM16.182 12.745h5.19c0.402 0 0.728 0.326 0.728 0.728s-0.326 0.728-0.728 0.728h-5.19c-0.402 0-0.728-0.326-0.728-0.728s0.326-0.728 0.728-0.728zM25.811 27.731c-2.66 1.407-6.144 2.182-9.811 2.182s-7.151-0.775-9.811-2.182c-2.987-1.58-4.709-3.88-4.733-6.316l1.002-6.73c0.835 1.561 2.211 2.95 4.041 4.025 2.596 1.526 5.97 2.367 9.502 2.367s6.906-0.841 9.502-2.367c1.83-1.076 3.206-2.464 4.041-4.025l1.002 6.73c-0.024 2.436-1.747 4.736-4.733 6.316zM15.714 22.336c0.090-0.039 0.188-0.059 0.286-0.059s0.196 0.020 0.286 0.059c0.090 0.039 0.172 0.095 0.24 0.167 0.474 0.497 2.020 2.21 2.020 3.413 0 1.404-1.142 2.547-2.547 2.547s-2.547-1.142-2.547-2.547c0-1.203 1.546-2.916 2.020-3.413 0.068-0.071 0.15-0.128 0.24-0.167zM14.909 25.916c0 0.602 0.49 1.091 1.091 1.091s1.091-0.49 1.091-1.091c0-0.323-0.508-1.104-1.091-1.812-0.584 0.708-1.091 1.489-1.091 1.812z"></path>
</symbol>
<symbol id="collars-leashes" viewBox="0 0 32 32">
<path fill="#f1cdb3" style="fill: var(--color1, #f1cdb3)" d="M27.073 3.699c1.481 0.504 2.654 1.099 3.485 1.768 0.956 0.77 1.442 1.619 1.442 2.524v6.995c0 0.905-0.485 1.754-1.441 2.524-0.832 0.669-2.004 1.264-3.486 1.768-2.818 0.959-6.508 1.509-10.448 1.561v2.508h2.155c0.239-1.261 1.349-2.219 2.679-2.219 1.504 0 2.727 1.223 2.727 2.727 0.001 0.644-0.227 1.267-0.642 1.758 0.41 0.485 0.642 1.104 0.642 1.758 0 1.504-1.223 2.727-2.727 2.727-1.33 0-2.441-0.957-2.679-2.219h-5.561c-0.239 1.262-1.35 2.219-2.679 2.219-1.504 0-2.727-1.223-2.727-2.727-0.001-0.644 0.227-1.267 0.642-1.758-0.41-0.485-0.642-1.104-0.642-1.758 0-1.504 1.223-2.727 2.727-2.727 1.33 0 2.441 0.957 2.679 2.219h2.155v-2.508c-3.94-0.053-7.63-0.602-10.448-1.561-1.482-0.504-2.654-1.099-3.486-1.768-0.956-0.77-1.441-1.619-1.441-2.524v-6.995c0-0.905 0.485-1.754 1.441-2.524 0.832-0.669 2.004-1.264 3.485-1.768 2.967-1.010 6.899-1.566 11.073-1.566s8.106 0.556 11.073 1.566zM30.733 8.191c0.006-0.036 0.010-0.072 0.013-0.109 0.002-0.031 0.004-0.061 0.004-0.092 0-2.179-6.058-4.608-14.75-4.608s-14.75 2.428-14.75 4.608c0 0.031 0.001 0.061 0.004 0.092 0.003 0.036 0.007 0.073 0.013 0.109l0.001 0.006c0.005 0.031 0.012 0.061 0.020 0.092 0.009 0.035 0.018 0.069 0.030 0.104 0.002 0.005 0.003 0.010 0.005 0.016 0.009 0.026 0.019 0.052 0.030 0.079 0.005 0.013 0.011 0.026 0.016 0.038 0.006 0.015 0.014 0.030 0.021 0.045 0.014 0.030 0.030 0.060 0.046 0.090l0.004 0.008c0.26 0.469 0.751 0.88 1.239 1.201 0.647-0.373 1.686-0.849 3.279-1.296 2.796-0.784 6.363-1.216 10.043-1.216s7.246 0.432 10.043 1.216c1.593 0.447 2.632 0.923 3.279 1.296 0.488-0.321 0.978-0.731 1.238-1.2l0.004-0.008c0.016-0.030 0.032-0.060 0.046-0.090 0.007-0.015 0.014-0.030 0.021-0.045 0.017-0.038 0.032-0.078 0.046-0.117l0.005-0.016c0.009-0.027 0.017-0.054 0.024-0.081 0.010-0.038 0.019-0.076 0.025-0.114l0.001-0.006zM23.191 5.259c-2.153-0.405-4.604-0.619-7.088-0.619-3.437 0-6.76 0.408-9.356 1.149-0.332 0.095-0.524 0.441-0.429 0.773 0.078 0.275 0.328 0.454 0.601 0.454 0.057 0 0.115-0.008 0.172-0.024 2.488-0.71 5.689-1.101 9.013-1.101 2.407 0 4.778 0.207 6.857 0.598 0.339 0.064 0.666-0.16 0.73-0.499s-0.16-0.666-0.499-0.73zM25.524 5.89c0.087 0.088 0.146 0.199 0.171 0.32 0.008 0.040 0.013 0.081 0.013 0.122s-0.004 0.082-0.013 0.122c-0.016 0.080-0.048 0.157-0.093 0.225-0.022 0.034-0.049 0.066-0.078 0.095s-0.061 0.054-0.095 0.077c-0.034 0.022-0.071 0.042-0.108 0.058s-0.077 0.027-0.117 0.036c-0.040 0.008-0.081 0.013-0.122 0.013s-0.082-0.004-0.122-0.013c-0.040-0.008-0.079-0.020-0.117-0.036s-0.074-0.035-0.107-0.058c-0.034-0.023-0.066-0.049-0.096-0.077s-0.054-0.061-0.078-0.095c-0.045-0.068-0.077-0.145-0.093-0.225-0.008-0.041-0.012-0.081-0.012-0.122s0.004-0.081 0.012-0.122c0.016-0.080 0.048-0.157 0.093-0.225 0.023-0.034 0.049-0.066 0.078-0.095s0.061-0.055 0.096-0.077c0.034-0.022 0.070-0.042 0.107-0.058s0.077-0.027 0.117-0.036c0.081-0.016 0.164-0.016 0.244 0s0.157 0.048 0.225 0.093c0.034 0.023 0.066 0.049 0.095 0.077zM6.295 9.777c-0.99 0.278-1.735 0.563-2.279 0.812 2.586 1.153 6.82 2.010 11.984 2.010s9.398-0.857 11.984-2.010c-0.544-0.249-1.289-0.535-2.279-0.812-2.689-0.754-6.136-1.169-9.705-1.169s-7.016 0.415-9.705 1.169zM18.345 19.533c7.418-0.387 12.405-2.57 12.405-4.547v-4.632l-0.009 0.007c-0.060 0.052-0.121 0.104-0.183 0.154-0.084 0.067-0.169 0.132-0.255 0.194l-0.001 0.001c-0.047 0.034-0.094 0.068-0.143 0.101l-0.022 0.015c-0.045 0.031-0.092 0.063-0.139 0.093l-0.029 0.019c-0.048 0.031-0.096 0.062-0.145 0.093l-0.021 0.013c-0.739 0.457-1.653 0.872-2.731 1.239-2.967 1.010-6.899 1.566-11.073 1.566s-8.106-0.556-11.073-1.566c-1.078-0.367-1.992-0.782-2.731-1.239l-0.021-0.013c-0.049-0.031-0.097-0.062-0.145-0.092-0.010-0.006-0.019-0.013-0.029-0.019-0.047-0.031-0.093-0.062-0.139-0.094l-0.022-0.015c-0.048-0.034-0.096-0.067-0.143-0.101l-0.001-0.001c-0.087-0.063-0.172-0.128-0.255-0.194-0.062-0.050-0.123-0.101-0.183-0.153l-0.008-0.007v4.632c0 1.978 4.987 4.16 12.405 4.547-0.269-0.434-0.411-0.934-0.41-1.445-0-0.189 0.019-0.377 0.058-0.562-1.581-0.096-3.089-0.276-4.493-0.54-0.339-0.064-0.563-0.39-0.499-0.73s0.391-0.563 0.73-0.499c1.506 0.283 3.14 0.467 4.86 0.549 0.506-0.595 1.259-0.974 2.099-0.974 0.836 0 1.586 0.375 2.091 0.964 2.538-0.133 4.89-0.492 6.819-1.043 0.332-0.095 0.678 0.098 0.773 0.43s-0.098 0.678-0.429 0.773c-1.88 0.536-4.133 0.898-6.558 1.057 0.039 0.185 0.061 0.378 0.061 0.574 0 0.511-0.142 1.011-0.411 1.445zM7.496 15.674c0.016 0.038 0.027 0.078 0.036 0.117s0.012 0.081 0.012 0.122c0 0.082-0.016 0.163-0.047 0.239s-0.077 0.145-0.136 0.203c-0.029 0.029-0.061 0.055-0.095 0.077s-0.070 0.042-0.108 0.058c-0.038 0.016-0.077 0.028-0.117 0.036s-0.082 0.012-0.122 0.012c-0.040 0-0.082-0.004-0.122-0.012s-0.079-0.020-0.117-0.036c-0.038-0.016-0.074-0.034-0.108-0.058s-0.066-0.049-0.095-0.077c-0.029-0.029-0.055-0.061-0.077-0.095s-0.042-0.070-0.058-0.108c-0.031-0.076-0.048-0.157-0.048-0.239 0-0.041 0.004-0.082 0.012-0.122s0.020-0.079 0.036-0.117c0.016-0.037 0.035-0.074 0.058-0.108s0.049-0.066 0.077-0.095c0.029-0.029 0.061-0.055 0.095-0.078s0.070-0.041 0.108-0.057c0.037-0.016 0.077-0.028 0.117-0.036 0.081-0.016 0.164-0.016 0.244 0 0.040 0.008 0.079 0.020 0.117 0.036s0.074 0.034 0.108 0.057c0.034 0.023 0.066 0.049 0.095 0.078s0.055 0.061 0.078 0.095c0.022 0.034 0.042 0.070 0.058 0.108zM14.495 18.088c0 0.83 0.675 1.505 1.505 1.505s1.505-0.675 1.505-1.505c0-0.83-0.675-1.506-1.505-1.506s-1.505 0.675-1.505 1.506zM19.608 24.546c-0.078 0.034-0.162 0.051-0.247 0.051h-6.723c-0.085 0-0.169-0.017-0.247-0.051s-0.149-0.083-0.207-0.145c-0.058-0.062-0.104-0.135-0.133-0.214s-0.042-0.165-0.037-0.25c0.001-0.027 0.002-0.055 0.002-0.082 0-0.814-0.663-1.477-1.477-1.477s-1.477 0.663-1.477 1.477c0 0.499 0.25 0.961 0.668 1.236 0.087 0.057 0.158 0.134 0.207 0.226s0.075 0.193 0.075 0.297c0 0.104-0.026 0.206-0.075 0.297s-0.12 0.169-0.207 0.226c-0.418 0.275-0.668 0.737-0.668 1.236 0 0.814 0.663 1.477 1.477 1.477s1.477-0.663 1.477-1.477c0-0.028-0.001-0.055-0.002-0.082-0.005-0.085 0.008-0.17 0.037-0.249s0.074-0.153 0.133-0.215c0.058-0.062 0.129-0.111 0.207-0.144s0.162-0.051 0.247-0.051h6.723c0.085 0 0.169 0.017 0.247 0.051s0.148 0.083 0.207 0.145c0.058 0.062 0.104 0.135 0.133 0.214s0.042 0.165 0.037 0.25c-0.001 0.027-0.002 0.055-0.002 0.082 0 0.814 0.663 1.477 1.477 1.477s1.477-0.663 1.477-1.477c0-0.499-0.25-0.961-0.668-1.236-0.087-0.057-0.158-0.134-0.207-0.226s-0.075-0.193-0.075-0.297c0-0.104 0.026-0.206 0.075-0.297s0.12-0.169 0.207-0.226c0.419-0.275 0.668-0.737 0.668-1.236 0-0.814-0.663-1.477-1.477-1.477s-1.477 0.663-1.477 1.477c0 0.027 0.001 0.055 0.002 0.082 0.005 0.085-0.008 0.17-0.037 0.25s-0.074 0.153-0.133 0.215c-0.058 0.062-0.129 0.111-0.207 0.144z"></path>
</symbol>
<symbol id="email" viewBox="0 0 32 32">
<path fill="#f1cdb3" style="fill: var(--color1, #f1cdb3)" d="M0.548 5.6h30.904c0.145 0 0.285 0.059 0.388 0.163s0.16 0.246 0.16 0.393v19.688c0 0.148-0.058 0.289-0.16 0.393s-0.242 0.163-0.388 0.163h-30.904c-0.145 0-0.285-0.059-0.387-0.163s-0.161-0.246-0.161-0.393v-19.688c0-0.148 0.058-0.289 0.161-0.393s0.242-0.163 0.387-0.163zM24.324 12.384c0.052 0.050 0.103 0.098 0.154 0.145l5.662-5.816h-28.28l14.14 14.525 2.222-2.283c-0.184-0.515-0.064-1.070 0.044-1.567 0.060-0.278 0.117-0.54 0.117-0.761s-0.057-0.484-0.117-0.761c-0.125-0.574-0.266-1.224 0.062-1.801 0.338-0.593 0.973-0.794 1.534-0.97 0.259-0.082 0.503-0.159 0.678-0.262 0.163-0.096 0.343-0.267 0.533-0.448 0.412-0.392 0.924-0.88 1.625-0.88s1.213 0.488 1.625 0.88zM27.070 19.188c-0.172 0.301-0.42 0.501-0.697 0.648l4.531 4.654v-16.98l-5.419 5.567 0.051 0.016c0.56 0.177 1.196 0.377 1.534 0.97 0.329 0.577 0.187 1.227 0.062 1.801-0.060 0.278-0.117 0.54-0.117 0.761s0.057 0.483 0.117 0.761c0.125 0.574 0.266 1.224-0.062 1.801zM1.096 24.489l8.265-8.489-8.265-8.489v16.979zM26.121 18.631c0.115-0.202 0.027-0.61-0.059-1.004-0.070-0.324-0.143-0.658-0.143-1.001s0.073-0.677 0.143-1.001c0.086-0.394 0.174-0.802 0.059-1.004-0.124-0.217-0.524-0.343-0.91-0.465-0.305-0.096-0.621-0.196-0.902-0.361-0.272-0.16-0.507-0.383-0.734-0.599-0.313-0.298-0.608-0.579-0.875-0.579s-0.563 0.281-0.875 0.579c-0.227 0.216-0.462 0.44-0.734 0.599-0.281 0.165-0.597 0.265-0.902 0.361-0.387 0.122-0.787 0.248-0.91 0.465-0.115 0.202-0.027 0.61 0.059 1.004v0c0.070 0.324 0.143 0.658 0.143 1.001s-0.073 0.677-0.143 1.001l-0 0c-0.086 0.394-0.174 0.802-0.059 1.004 0.124 0.217 0.524 0.343 0.91 0.465 0.305 0.096 0.621 0.196 0.902 0.361 0.272 0.16 0.507 0.383 0.734 0.599 0.313 0.298 0.608 0.579 0.875 0.579s0.563-0.281 0.875-0.579c0.227-0.216 0.462-0.44 0.734-0.599 0.281-0.165 0.597-0.265 0.902-0.361 0.387-0.122 0.787-0.248 0.911-0.465zM19.909 16.626c0-1.561 1.252-2.832 2.79-2.832s2.79 1.27 2.79 2.832c0 1.561-1.252 2.832-2.79 2.832s-2.79-1.27-2.79-2.832zM21.005 16.626c0 0.948 0.76 1.719 1.694 1.719s1.694-0.771 1.694-1.719c0-0.948-0.76-1.719-1.694-1.719s-1.694 0.771-1.694 1.719zM15.61 22.419l-5.479-5.628-8.271 8.496h28.281l-4.9-5.033c-0.145 0.050-0.277 0.103-0.383 0.165-0.163 0.096-0.343 0.267-0.533 0.448-0.412 0.392-0.925 0.88-1.625 0.88s-1.213-0.488-1.625-0.88c-0.191-0.181-0.37-0.353-0.533-0.448-0.175-0.103-0.419-0.18-0.678-0.262-0.303-0.096-0.627-0.198-0.915-0.366l-2.558 2.628c-0.051 0.052-0.112 0.094-0.179 0.122s-0.139 0.043-0.211 0.043c-0.073 0-0.144-0.015-0.211-0.043s-0.128-0.070-0.179-0.122z"></path>
</symbol>
<symbol id="marker" viewBox="0 0 32 32">
<path fill="#f1cdb3" style="fill: var(--color1, #f1cdb3)" d="M5 10.667c0-5.882 4.935-10.667 11-10.667s11 4.785 11 10.666c0 1.766-0.455 3.516-1.317 5.064l-9.081 15.926c-0.121 0.212-0.351 0.344-0.602 0.344s-0.481-0.132-0.601-0.344l-9.078-15.921c-0.865-1.553-1.321-3.303-1.321-5.069zM16 29.956l8.476-14.865c0.751-1.347 1.149-2.879 1.149-4.424 0-5.146-4.318-9.333-9.625-9.333s-9.625 4.187-9.625 9.333c0 1.545 0.398 3.077 1.152 4.43l8.473 14.859zM10.5 10.666c0-2.941 2.467-5.333 5.5-5.333s5.5 2.393 5.5 5.333c0 2.941-2.467 5.333-5.5 5.333s-5.5-2.393-5.5-5.333zM11.875 10.667c0 2.206 1.85 4 4.125 4s4.125-1.794 4.125-4c0-2.206-1.85-4-4.125-4s-4.125 1.794-4.125 4z"></path>
</symbol>
<symbol id="medicines" viewBox="0 0 32 32">
<path fill="#f1cdb3" style="fill: var(--color1, #f1cdb3)" d="M23.521 0.183l8.296 8.296c0.244 0.244 0.244 0.64-0 0.884l-2.209 2.209c-0.122 0.122-0.282 0.183-0.442 0.183-0.082 0-0.163-0.016-0.239-0.047s-0.145-0.078-0.203-0.136l-2.625-2.624-2.485 2.485 3.825 3.825c0.117 0.117 0.183 0.276 0.183 0.442s-0.066 0.325-0.183 0.442l-2.538 2.538c-0.122 0.122-0.282 0.183-0.442 0.183-0.082 0-0.163-0.016-0.239-0.048s-0.145-0.078-0.203-0.136l-0.806-0.806-10.359 10.359c-0.461 0.461-1.074 0.715-1.726 0.715s-1.265-0.254-1.726-0.715l-0.795-0.795-1.458 1.458c-0.117 0.117-0.276 0.183-0.442 0.183s-0.325-0.066-0.442-0.183l-1.136-1.136-4.058 4.058c-0.122 0.122-0.282 0.183-0.442 0.183s-0.32-0.061-0.442-0.183c-0.244-0.244-0.244-0.64 0-0.884l4.058-4.058-1.136-1.136c-0.058-0.058-0.104-0.127-0.135-0.203s-0.048-0.157-0.048-0.239c0-0.082 0.016-0.163 0.048-0.239s0.077-0.145 0.135-0.203l1.458-1.458-0.795-0.795c-0.952-0.952-0.952-2.501 0-3.453l10.359-10.359-0.806-0.806c-0.117-0.117-0.183-0.276-0.183-0.442s0.066-0.325 0.183-0.442l2.538-2.538c0.244-0.244 0.64-0.244 0.884 0l3.825 3.825 2.485-2.485-2.625-2.624c-0.117-0.117-0.183-0.276-0.183-0.442s0.066-0.325 0.183-0.442l2.209-2.209c0.244-0.244 0.64-0.244 0.884 0zM21.753 2.834l7.412 7.412 1.325-1.325-7.412-7.412-1.325 1.325zM24.459 17.353l1.654-1.654-9.812-9.812-1.654 1.654 9.812 9.812zM21.451 9.269l1.279 1.279 2.485-2.485-1.279-1.279-2.485 2.485zM16.084 14.383l-2.892-2.892-1.040 1.040 5.381 5.381 2.858-2.858-5.381-5.381-0.934 0.934 2.892 2.892c0.244 0.244 0.244 0.64 0 0.884-0.122 0.122-0.282 0.183-0.442 0.183-0.082 0-0.163-0.016-0.239-0.047s-0.145-0.078-0.203-0.136zM10.283 27.348c0.465 0.465 1.22 0.464 1.685 0l6.616-6.617-1.052-1.052-4.064 4.064c-0.122 0.122-0.282 0.183-0.442 0.183s-0.32-0.061-0.442-0.183c-0.244-0.244-0.244-0.64 0-0.884l4.064-4.064-5.381-5.381-1.017 1.017 1.539 1.539c0.244 0.244 0.244 0.64 0 0.884-0.122 0.122-0.282 0.183-0.442 0.183s-0.32-0.061-0.442-0.183l-1.539-1.539-1.029 1.029 2.892 2.892c0.244 0.244 0.244 0.64 0 0.884-0.122 0.122-0.282 0.183-0.442 0.183s-0.32-0.061-0.442-0.183l-2.892-2.892-1.029 1.029 1.539 1.539c0.244 0.244 0.244 0.64 0 0.884-0.122 0.122-0.282 0.183-0.442 0.183s-0.32-0.061-0.442-0.183l-1.539-1.539-0.89 0.89c-0.465 0.464-0.465 1.221 0 1.685l5.631 5.631zM18.417 18.796l1.052 1.052 2.858-2.858-1.052-1.052-2.858 2.858zM4.431 25.296l2.273 2.273 1.016-1.016-2.273-2.273-1.016 1.016zM11.866 24.801c0.016 0.038 0.028 0.077 0.036 0.117s0.012 0.081 0.012 0.122-0.004 0.082-0.012 0.123c-0.008 0.039-0.020 0.079-0.036 0.117s-0.035 0.074-0.057 0.108c-0.023 0.034-0.049 0.066-0.078 0.095-0.058 0.058-0.127 0.104-0.203 0.136s-0.157 0.048-0.239 0.048c-0.082 0-0.163-0.016-0.239-0.048s-0.145-0.077-0.203-0.136c-0.029-0.029-0.055-0.061-0.077-0.095s-0.042-0.070-0.058-0.108c-0.016-0.038-0.028-0.077-0.036-0.117-0.008-0.041-0.012-0.082-0.012-0.123s0.004-0.082 0.012-0.122c0.007-0.040 0.020-0.079 0.036-0.117s0.035-0.074 0.058-0.108c0.023-0.034 0.049-0.066 0.077-0.095s0.061-0.055 0.095-0.078c0.034-0.023 0.070-0.042 0.108-0.057s0.077-0.028 0.117-0.036c0.080-0.016 0.163-0.016 0.244 0 0.040 0.008 0.079 0.020 0.117 0.036s0.074 0.035 0.108 0.057c0.034 0.023 0.066 0.049 0.095 0.078s0.055 0.061 0.078 0.095c0.023 0.034 0.042 0.070 0.057 0.108z"></path>
</symbol>
<symbol id="pet-food" viewBox="0 0 32 32">
<path fill="#f1cdb3" style="fill: var(--color1, #f1cdb3)" d="M28.212 13.599l-3.069-8.4v-4.437c0-0.421-0.341-0.762-0.762-0.762h-16.762c-0.421 0-0.762 0.341-0.762 0.762v4.437l-3.069 8.4c-0.364 0.995-0.55 2.046-0.55 3.106v12.669c0 1.448 1.178 2.626 2.626 2.626h20.272c1.448 0 2.626-1.178 2.626-2.626v-12.669c0-1.063-0.185-2.108-0.55-3.106zM8.381 1.524h15.238v3.048h-15.238v-3.048zM27.238 26.737h-10.754c-0.421 0-0.762 0.341-0.762 0.762s0.341 0.762 0.762 0.762h10.754v1.113c0 0.608-0.494 1.102-1.102 1.102h-20.272c-0.608 0-1.102-0.494-1.102-1.102v-12.669c-0.001-0.881 0.154-1.756 0.457-2.583l2.933-8.026h15.696l2.933 8.026c0.303 0.828 0.458 1.702 0.457 2.583v10.032zM15.76 13.747c1.365 0 2.476-1.111 2.476-2.476s-1.111-2.476-2.476-2.476c-1.365 0-2.476 1.111-2.476 2.476s1.111 2.476 2.476 2.476zM15.76 10.318c0.525 0 0.952 0.427 0.952 0.952s-0.427 0.952-0.952 0.952c-0.525 0-0.952-0.427-0.952-0.952s0.427-0.952 0.952-0.952zM21.094 11.74c-1.365 0-2.476 1.111-2.476 2.476s1.111 2.476 2.476 2.476c1.366 0 2.476-1.111 2.476-2.476s-1.111-2.476-2.476-2.476zM10.427 11.74c1.365 0 2.476 1.111 2.476 2.476s-1.111 2.476-2.476 2.476c-1.366 0-2.476-1.111-2.476-2.476s1.111-2.476 2.476-2.476zM21.094 15.169c-0.525 0-0.952-0.427-0.952-0.952s0.427-0.952 0.952-0.952c0.525 0 0.952 0.427 0.952 0.952s-0.427 0.952-0.952 0.952zM9.475 14.217c0 0.525 0.427 0.952 0.952 0.952s0.952-0.427 0.952-0.952c0-0.525-0.427-0.952-0.952-0.952s-0.952 0.427-0.952 0.952zM15.76 15.27c1.631 0 2.987 1.197 3.235 2.759 1.289 0.53 2.132 1.851 2.024 3.286-0.122 1.599-1.419 2.894-3.018 3.013-0.082 0.006-0.165 0.009-0.247 0.009-0.532 0.001-1.056-0.129-1.527-0.377-0.296-0.156-0.637-0.156-0.934-0-0.543 0.286-1.156 0.414-1.774 0.367-1.599-0.119-2.897-1.414-3.018-3.013-0.109-1.435 0.735-2.756 2.024-3.286 0.249-1.561 1.605-2.759 3.235-2.759zM17.888 22.808c0.854-0.064 1.547-0.755 1.612-1.609 0.067-0.876-0.528-1.673-1.383-1.853-0.174-0.037-0.329-0.133-0.44-0.272s-0.169-0.312-0.165-0.49l0.001-0.041c0-0.964-0.786-1.75-1.752-1.75s-1.752 0.786-1.752 1.752l0.001 0.039c0.004 0.177-0.055 0.351-0.165 0.49s-0.266 0.235-0.44 0.272c-0.855 0.18-1.45 0.977-1.383 1.853 0.065 0.854 0.758 1.545 1.611 1.609 0.333 0.025 0.661-0.043 0.95-0.196 0.363-0.192 0.767-0.292 1.178-0.292s0.815 0.1 1.178 0.292c0.289 0.153 0.618 0.221 0.95 0.196zM12.985 26.737h0.185c0.421 0 0.762 0.341 0.762 0.762s-0.341 0.762-0.762 0.762h-0.185c-0.421 0-0.762-0.341-0.762-0.762s0.341-0.762 0.762-0.762z"></path>
</symbol>
<symbol id="phone" viewBox="0 0 32 32">
<path fill="#f1cdb3" style="fill: var(--color1, #f1cdb3)" d="M30.008 5.524l1.949 4.793c0.054 0.132 0.057 0.28 0.010 0.414l-0.78 2.237c-0.045 0.13-0.135 0.239-0.252 0.307s-0.254 0.090-0.386 0.064l-7.405-1.518c-0.111-0.023-0.213-0.080-0.292-0.163s-0.132-0.19-0.151-0.305l-0.641-3.891c-3.529-0.909-8.591-0.909-12.121 0l-0.641 3.891c-0.019 0.115-0.071 0.221-0.151 0.305s-0.181 0.14-0.292 0.163l-7.405 1.518c-0.132 0.027-0.269 0.005-0.386-0.063s-0.207-0.177-0.252-0.307l-0.779-2.237c-0.047-0.135-0.043-0.282 0.011-0.414l1.949-4.793c0.033-0.082 0.085-0.155 0.15-0.213s0.143-0.1 0.227-0.122l2.342-0.622c6.857-1.822 15.72-1.822 22.578 0l2.342 0.622c0.084 0.022 0.162 0.064 0.227 0.122s0.117 0.131 0.15 0.213zM9.031 6.614c0.072-0.081 0.164-0.14 0.267-0.169 3.821-1.081 9.584-1.081 13.405 0 0.103 0.029 0.196 0.088 0.267 0.169s0.119 0.182 0.137 0.289l0.216 1.308 7.19 1.54-1.432-3.522-2.073-0.551c-6.687-1.777-15.328-1.776-22.015 0l-2.073 0.551-1.432 3.522 7.19-1.54 0.216-1.308c0.018-0.108 0.065-0.208 0.137-0.289zM26.48 13.411c0.076 0.078 0.129 0.176 0.152 0.284l2.594 11.975c0.009 0.041 0.013 0.083 0.013 0.124v2.431c0 0.152-0.059 0.298-0.164 0.406s-0.248 0.168-0.397 0.168h-25.356c-0.149 0-0.291-0.061-0.397-0.168s-0.164-0.254-0.164-0.406v-2.431c0-0.042 0.004-0.084 0.013-0.124l2.594-11.975c0.023-0.108 0.076-0.206 0.153-0.284s0.173-0.131 0.278-0.154l3.82-0.837 0.481-3.21c0.020-0.136 0.087-0.259 0.189-0.349s0.231-0.139 0.365-0.139h1.496v-0.753c0-0.317 0.251-0.575 0.561-0.575s0.561 0.257 0.561 0.575v0.753h5.459v-0.753c0-0.317 0.251-0.575 0.561-0.575s0.561 0.257 0.561 0.575v0.753h1.496c0.134 0 0.264 0.049 0.365 0.139s0.169 0.213 0.189 0.349l0.481 3.21 3.82 0.837c0.105 0.023 0.202 0.076 0.278 0.154zM1.305 10.965l0.4 1.148 6.551-1.343 0.221-1.341-7.172 1.536zM23.743 10.77l6.551 1.343 0.4-1.148-7.172-1.536 0.221 1.341zM10.231 13.462l-3.846 0.842-2.364 10.916h23.958l-2.364-10.916-3.846-0.842c-0.111-0.024-0.213-0.083-0.291-0.168s-0.129-0.192-0.146-0.307l-0.467-3.114h-9.731l-0.467 3.114c-0.017 0.115-0.068 0.222-0.146 0.307s-0.18 0.143-0.291 0.168zM16 24.128c3.319 0 6.020-2.767 6.020-6.168s-2.7-6.169-6.020-6.169c-3.319 0-6.020 2.767-6.020 6.169s2.7 6.168 6.020 6.168zM16 12.941c2.701 0 4.898 2.252 4.898 5.019s-2.197 5.019-4.898 5.019c-2.701 0-4.898-2.252-4.898-5.019s2.197-5.019 4.898-5.019zM18.135 17.96c0 1.206-0.958 2.188-2.135 2.188s-2.135-0.982-2.135-2.188c0-1.206 0.958-2.188 2.135-2.188s2.135 0.982 2.135 2.188zM17.014 17.96c0-0.573-0.455-1.039-1.014-1.039s-1.014 0.466-1.014 1.039 0.455 1.039 1.014 1.039c0.559 0 1.014-0.466 1.014-1.039zM7.289 26.37h-3.406v1.281h2.684l0.722-1.281zM8.715 27.651l0.722-1.281h-0.853l-0.722 1.281h0.853zM22.938 26.37h-12.205l-0.722 1.281h12.205l0.722-1.281zM24.233 26.37l-0.722 1.281h4.606v-1.281h-3.884z"></path>
</symbol>
<symbol id="shampoos" viewBox="0 0 32 32">
<path fill="#f1cdb3" style="fill: var(--color1, #f1cdb3)" d="M19.803 9.163v-2.902c0-0.384-0.311-0.696-0.696-0.696h-0.522v-4.87c0-0.384-0.311-0.696-0.696-0.696h-4.522c-0.384 0-0.696 0.311-0.696 0.696v4.87h-0.522c-0.384 0-0.696 0.311-0.696 0.696v2.903c-2.443 0.974-4.174 3.363-4.174 6.15v15.991c0 0.384 0.311 0.696 0.696 0.696h15.304c0.384 0 0.696-0.311 0.696-0.696v-15.991c0-2.786-1.731-5.176-4.174-6.15zM14.064 1.391h3.13v4.174h-3.13v-4.174zM12.846 6.957h5.565v1.739h-5.565v-1.739zM22.585 30.609h-13.913v-15.296c0-2.882 2.344-5.226 5.226-5.226h3.461c2.882 0 5.226 2.344 5.226 5.226v15.296zM20.151 14.609h-9.044c-0.384 0-0.696 0.311-0.696 0.696v12.87c0 0.384 0.311 0.696 0.696 0.696h9.044c0.384 0 0.696-0.311 0.696-0.696v-4.372c0-0.384-0.311-0.696-0.696-0.696s-0.696 0.311-0.696 0.696v3.676h-7.652v-11.478h7.652v2.202c0 0.384 0.311 0.696 0.696 0.696s0.696-0.311 0.696-0.696v-2.898c0-0.384-0.311-0.696-0.696-0.696zM16.497 17.105c1.151 0 2.087 0.936 2.087 2.087s-0.936 2.087-2.087 2.087c-1.151 0-2.087-0.936-2.087-2.087s0.936-2.087 2.087-2.087zM15.802 19.192c0 0.384 0.312 0.696 0.696 0.696s0.696-0.312 0.696-0.696c0-0.384-0.312-0.696-0.696-0.696s-0.696 0.312-0.696 0.696zM19.455 20.997c0-0.384 0.311-0.696 0.696-0.696s0.696 0.311 0.696 0.696v0.070c0 0.384-0.311 0.696-0.696 0.696s-0.696-0.311-0.696-0.696v-0.070zM14.929 21.947c-1.151 0-2.087 0.936-2.087 2.087s0.936 2.087 2.087 2.087c1.151 0 2.087-0.936 2.087-2.087s-0.936-2.087-2.087-2.087zM14.929 24.73c-0.384 0-0.696-0.312-0.696-0.696s0.312-0.696 0.696-0.696c0.384 0 0.696 0.312 0.696 0.696s-0.312 0.696-0.696 0.696z"></path>
</symbol>
<symbol id="sleeping-area" viewBox="0 0 32 32">
<path fill="#f1cdb3" style="fill: var(--color1, #f1cdb3)" d="M16.523 0.121l14.385 10.528c0.167 0.122 0.256 0.312 0.256 0.505 0 0.128-0.039 0.257-0.121 0.369l-1.88 2.569c-0.048 0.066-0.11 0.122-0.18 0.165s-0.148 0.071-0.229 0.084c-0.081 0.012-0.164 0.009-0.244-0.011s-0.155-0.054-0.221-0.103l-0.534-0.391v17.54c0 0.345-0.28 0.625-0.625 0.625h-21.92c-0.345 0-0.625-0.28-0.625-0.625v-17.564l-0.567 0.415c-0.066 0.048-0.141 0.083-0.221 0.103s-0.163 0.023-0.244 0.010-0.159-0.041-0.229-0.084c-0.070-0.043-0.131-0.099-0.18-0.165l-1.88-2.569c-0.081-0.111-0.121-0.24-0.121-0.369 0-0.192 0.089-0.382 0.256-0.505l14.385-10.528c0.107-0.078 0.236-0.121 0.369-0.121s0.262 0.042 0.369 0.121zM16.523 4.066l12.001 8.783 1.142-1.56-13.512-9.889-13.512 9.889 1.142 1.56 12.001-8.783c0.107-0.079 0.236-0.121 0.369-0.121s0.262 0.042 0.369 0.121zM11.718 28.312h14.787v-15.392l-10.351-7.576-9.284 6.795h13.602c0.345 0 0.625 0.28 0.625 0.625s-0.28 0.625-0.625 0.625h-14.637v17.361h20.67v-1.188h-14.787c-0.345 0-0.625-0.28-0.625-0.625s0.28-0.625 0.625-0.625zM23.3 12.525c0.016 0.038 0.028 0.078 0.036 0.118s0.012 0.081 0.012 0.122-0.004 0.082-0.012 0.122c-0.008 0.040-0.021 0.079-0.036 0.117s-0.035 0.074-0.058 0.108c-0.023 0.034-0.049 0.066-0.078 0.095s-0.061 0.055-0.095 0.078c-0.034 0.022-0.070 0.042-0.108 0.057s-0.077 0.028-0.117 0.036c-0.040 0.008-0.081 0.013-0.122 0.013s-0.082-0.004-0.122-0.013c-0.040-0.008-0.079-0.020-0.117-0.036s-0.074-0.035-0.108-0.057c-0.034-0.023-0.066-0.049-0.095-0.078s-0.055-0.061-0.077-0.095c-0.023-0.034-0.042-0.070-0.058-0.108s-0.028-0.078-0.036-0.117c-0.008-0.040-0.012-0.081-0.012-0.122s0.004-0.082 0.012-0.122c0.007-0.040 0.020-0.079 0.036-0.118s0.035-0.074 0.058-0.107c0.023-0.034 0.049-0.066 0.077-0.095 0.116-0.116 0.277-0.183 0.442-0.183 0.166 0.001 0.324 0.066 0.442 0.183 0.029 0.029 0.055 0.061 0.078 0.095s0.042 0.070 0.058 0.107zM23.332 14.906c0.377 0.373 0.585 0.871 0.585 1.401 0 0.036-0.001 0.072-0.003 0.108-0.066 1.233-0.237 2.459-0.512 3.663 0.083 0.213 0.155 0.429 0.217 0.649 0.081 0.292 0.143 0.588 0.185 0.888 0.031 0.225 0.047 0.449 0.047 0.671 0 1.161-0.422 2.274-1.22 3.191-1.038 1.192-2.576 1.876-4.219 1.876h-4.514c-2.999 0-5.439-2.276-5.439-5.074 0-0.222 0.016-0.444 0.046-0.663 0.073-0.526 0.208-1.042 0.402-1.538-0.13-0.569-0.237-1.143-0.321-1.721-0.093-0.645-0.157-1.293-0.192-1.943-0.002-0.036-0.003-0.072-0.003-0.108 0-0.592 0.259-1.143 0.722-1.522 0.491-0.403 1.125-0.544 1.74-0.387 0.006 0.001 0.011 0.003 0.017 0.005 1.157 0.296 2.288 0.688 3.38 1.171 0.271-0.064 0.545-0.115 0.821-0.151 0.358-0.047 0.722-0.070 1.083-0.070 0.641-0 1.28 0.074 1.904 0.222 1.093-0.483 2.223-0.875 3.381-1.172 0.159-0.042 0.322-0.064 0.487-0.066 0.521-0.004 1.033 0.202 1.407 0.572zM22.666 16.347v-0.002c0.001-0.012 0.001-0.024 0.001-0.036v-0.005c0-0.095-0.019-0.188-0.055-0.276s-0.091-0.167-0.159-0.234c-0.136-0.134-0.32-0.211-0.507-0.211h-0.008c-0.055 0.001-0.11 0.007-0.163 0.020-1.167 0.297-2.304 0.697-3.4 1.196-0.132 0.060-0.28 0.072-0.42 0.035-0.583-0.156-1.189-0.235-1.801-0.235-0.307 0-0.617 0.020-0.92 0.060-0.297 0.039-0.591 0.098-0.881 0.175-0.14 0.037-0.289 0.025-0.421-0.035-1.092-0.497-2.226-0.896-3.388-1.192l-0.012-0.003c-0.056-0.013-0.113-0.020-0.169-0.020-0.165 0-0.325 0.057-0.457 0.165-0.17 0.139-0.265 0.341-0.265 0.558 0 0.013 0 0.027 0.001 0.040 0.032 0.612 0.093 1.223 0.18 1.83s0.204 1.21 0.346 1.807c0.011 0.048 0.017 0.096 0.017 0.145 0 0.084-0.017 0.167-0.050 0.245-0.193 0.452-0.324 0.927-0.392 1.413-0.023 0.164-0.034 0.33-0.034 0.492 0 2.108 1.879 3.824 4.189 3.824h4.514c1.282 0 2.476-0.527 3.277-1.446 0.597-0.685 0.912-1.515 0.912-2.376 0-0.163-0.011-0.328-0.034-0.493-0.034-0.245-0.084-0.487-0.151-0.725-0.066-0.235-0.146-0.464-0.242-0.689-0.033-0.078-0.050-0.161-0.050-0.244 0-0.049 0.006-0.097 0.017-0.145 0.285-1.194 0.461-2.411 0.526-3.637zM19.788 19.93l0.928 0.425c0.229 0.105 0.365 0.332 0.365 0.568 0 0.087-0.018 0.176-0.057 0.26-0.105 0.229-0.332 0.365-0.568 0.365-0.090 0-0.178-0.019-0.26-0.057l-0.668-0.306-0.668 0.306c-0.314 0.144-0.685 0.006-0.828-0.308-0.039-0.084-0.057-0.173-0.057-0.26 0-0.237 0.135-0.463 0.365-0.568l0.928-0.425c0.082-0.038 0.17-0.057 0.26-0.057s0.179 0.019 0.26 0.057zM13.041 19.93l0.928 0.425c0.229 0.105 0.365 0.332 0.365 0.569 0 0.087-0.018 0.176-0.057 0.26-0.144 0.314-0.515 0.452-0.828 0.308l-0.668-0.306-0.668 0.306c-0.075 0.034-0.155 0.053-0.237 0.056s-0.164-0.010-0.241-0.039c-0.077-0.029-0.148-0.072-0.208-0.128s-0.109-0.123-0.143-0.198c-0.039-0.084-0.057-0.173-0.057-0.26 0-0.237 0.135-0.463 0.365-0.569l0.928-0.425c0.082-0.038 0.17-0.057 0.26-0.057s0.179 0.019 0.26 0.057zM16.779 22.688c0 0.302 0.246 0.547 0.547 0.547 0.345 0 0.625 0.28 0.625 0.625s-0.28 0.625-0.625 0.625c-0.424 0-0.835-0.15-1.159-0.425-0.317 0.278-0.731 0.448-1.185 0.448-0.345 0-0.625-0.28-0.625-0.625s0.28-0.625 0.625-0.625c0.302 0 0.547-0.246 0.547-0.547v-0.023c0-0.345 0.28-0.625 0.625-0.625s0.625 0.28 0.625 0.625zM10.044 28.698c0.016 0.038 0.028 0.077 0.036 0.117s0.013 0.081 0.013 0.122c-0 0.124-0.037 0.245-0.106 0.348-0.022 0.034-0.049 0.066-0.078 0.095s-0.061 0.055-0.095 0.077c-0.103 0.069-0.223 0.105-0.347 0.106-0.041 0-0.082-0.004-0.123-0.013-0.039-0.008-0.079-0.020-0.117-0.036s-0.074-0.035-0.107-0.058c-0.034-0.022-0.066-0.049-0.095-0.077s-0.055-0.061-0.078-0.095c-0.022-0.034-0.042-0.071-0.058-0.108-0.031-0.075-0.047-0.156-0.047-0.237v-0.002c0-0.041 0.004-0.081 0.012-0.122 0.016-0.080 0.048-0.157 0.093-0.225 0.023-0.034 0.049-0.066 0.078-0.095s0.061-0.055 0.095-0.078c0.034-0.022 0.070-0.042 0.107-0.057s0.077-0.027 0.117-0.036c0.081-0.016 0.164-0.016 0.244 0s0.157 0.048 0.225 0.093c0.034 0.023 0.066 0.049 0.095 0.078s0.055 0.061 0.078 0.095c0.023 0.034 0.042 0.071 0.058 0.108z"></path>
</symbol>
<symbol id="toys" viewBox="0 0 32 32">
<path fill="#f1cdb3" style="fill: var(--color1, #f1cdb3)" d="M16 0c4.274 0 8.292 1.664 11.314 4.686s4.686 7.040 4.686 11.314-1.664 8.292-4.686 11.314c-3.022 3.022-7.040 4.686-11.314 4.686s-8.292-1.664-11.314-4.686c-3.022-3.022-4.686-7.040-4.686-11.314s1.664-8.292 4.686-11.314c3.022-3.022 7.040-4.686 11.314-4.686zM28.666 17.972c0.604 0.090 1.204 0.137 1.791 0.143 0.067-0.462 0.111-0.926 0.134-1.392-0.009 0-0.018 0-0.027 0-0.552 0-1.119-0.043-1.694-0.128-0.38-0.057-0.642-0.41-0.586-0.79s0.41-0.642 0.79-0.586c0.517 0.077 1.024 0.114 1.518 0.113-0.163-3.651-1.662-7.061-4.263-9.662-2.678-2.679-6.147-4.097-9.662-4.257-0.001 0.49 0.036 0.997 0.113 1.511 0.42 2.828 1.94 5.675 4.28 8.014 0.272 0.272 0.272 0.712 0 0.984s-0.712 0.272-0.984 0c-2.549-2.549-4.209-5.672-4.672-8.794-0.086-0.581-0.128-1.155-0.127-1.713-0.466 0.023-0.931 0.068-1.393 0.135 0.006 0.584 0.054 1.182 0.143 1.783 0.507 3.414 2.306 6.814 5.065 9.573s6.159 4.558 9.573 5.065zM19.16 30.259c2.629-0.578 5.129-1.888 7.17-3.929 1.916-1.916 3.234-4.271 3.861-6.839l-0.006 0.010c-0.577-0.017-1.152-0.068-1.723-0.154-3.708-0.551-7.384-2.489-10.353-5.457s-4.906-6.645-5.457-10.352c-0.085-0.569-0.136-1.142-0.153-1.717-2.504 0.614-4.876 1.897-6.828 3.849-1.999 1.999-3.347 4.476-3.938 7.173l0.004-0.003c0.492 0.023 0.983 0.071 1.471 0.144 3.708 0.551 7.384 2.489 10.353 5.457s4.907 6.645 5.457 10.353c0.072 0.486 0.12 0.975 0.143 1.465zM24.122 13.95c0.131-0.13 0.307-0.204 0.492-0.204s0.361 0.074 0.492 0.204c0.129 0.129 0.204 0.309 0.204 0.492-0.001 0.184-0.074 0.361-0.204 0.492-0.129 0.129-0.309 0.204-0.492 0.204s-0.362-0.074-0.492-0.204c-0.13-0.129-0.204-0.309-0.204-0.492 0-0.184 0.074-0.361 0.204-0.492zM16.264 29.202c0.069 0.462 0.11 0.927 0.124 1.394 0.464-0.012 0.928-0.046 1.389-0.102-0.017-0.501-0.063-1.001-0.136-1.496-0.507-3.414-2.306-6.814-5.065-9.573s-6.159-4.558-9.573-5.065c-0.505-0.075-1.008-0.121-1.504-0.137-0.055 0.459-0.089 0.922-0.101 1.389 0.469 0.013 0.937 0.054 1.401 0.124 3.121 0.464 6.245 2.123 8.794 4.672s4.209 5.673 4.672 8.794zM1.426 17.004c0.238 3.524 1.723 6.804 4.244 9.325 2.593 2.593 5.926 4.005 9.325 4.237-0.014-0.388-0.050-0.776-0.107-1.16-0.42-2.828-1.94-5.675-4.28-8.015s-5.186-3.86-8.014-4.28c-0.395-0.059-0.785-0.095-1.167-0.108z"></path>
</symbol>
<symbol id="vitamins" viewBox="0 0 32 32">
<path fill="#f1cdb3" style="fill: var(--color1, #f1cdb3)" d="M22.462 17.957c2.448 0 4.757 0.327 6.504 0.922 2.508 0.854 3.034 1.959 3.034 2.737v5.21c0 0.777-0.526 1.883-3.034 2.737-1.747 0.595-4.056 0.922-6.504 0.922s-4.757-0.327-6.504-0.922c-1.48-0.504-2.27-1.096-2.669-1.656-0.549 0.623-1.197 1.156-1.919 1.571-1.145 0.658-2.452 1.006-3.779 1.006-4.186 0-7.591-3.405-7.591-7.591v-13.703c0-4.185 3.405-7.591 7.591-7.591s7.591 3.405 7.591 7.591v9.988c0.255-0.11 0.514-0.21 0.776-0.299 1.638-0.557 3.77-0.88 6.047-0.918 0.152-0.002 0.304-0.004 0.457-0.004zM3.75 15.417h10.181v-6.227c0-3.496-2.844-6.341-6.341-6.341s-6.341 2.844-6.341 6.341v6.227h1.25v-6.227c0-2.807 2.284-5.091 5.091-5.091s5.091 2.284 5.091 5.091c0 0.345-0.28 0.625-0.625 0.625s-0.625-0.28-0.625-0.625c0-2.118-1.723-3.841-3.841-3.841s-3.841 1.723-3.841 3.841v6.227zM13.045 20.98c0.136-0.348 0.405-0.723 0.886-1.092v-3.221h-10.181v3.375c0 0.345-0.28 0.625-0.625 0.625s-0.625-0.28-0.625-0.625v-3.375h-1.25v6.227c0 3.496 2.844 6.341 6.341 6.341 2.177 0 4.158-1.084 5.333-2.909v-4.71c0-0.028 0.001-0.057 0.002-0.086l0.001-0.016c0.004-0.057 0.010-0.114 0.019-0.17 0.020-0.124 0.053-0.246 0.099-0.363zM14.18 21.547c-0.004 0.023-0.006 0.046-0.006 0.069v0.001c0.001 0.2 0.166 0.474 0.568 0.77l13.376-2.465c-1.562-0.462-3.547-0.715-5.655-0.715-2.314 0-4.481 0.304-6.101 0.855-0.639 0.217-1.114 0.448-1.456 0.67-0.002 0.002-0.005 0.004-0.007 0.005-0.146 0.095-0.272 0.192-0.377 0.288l-0.018 0.017c-0.015 0.015-0.030 0.029-0.044 0.044-0.021 0.022-0.042 0.044-0.061 0.065l-0.002 0.003c-0.125 0.142-0.193 0.273-0.214 0.386l-0.001 0.006zM22.462 24.024c2.314 0 4.481-0.304 6.101-0.855 1.614-0.549 2.187-1.18 2.187-1.553 0-0.206-0.175-0.491-0.603-0.797l-13.408 2.471c1.572 0.475 3.584 0.735 5.723 0.735zM3.472 22.004c0.034 0.023 0.066 0.049 0.095 0.078 0.116 0.116 0.183 0.277 0.183 0.442 0 0.041-0.004 0.082-0.012 0.122s-0.021 0.079-0.036 0.117c-0.016 0.038-0.035 0.074-0.057 0.108s-0.049 0.066-0.077 0.095c-0.029 0.029-0.061 0.054-0.095 0.078s-0.070 0.042-0.108 0.058c-0.076 0.032-0.157 0.048-0.239 0.047-0.041 0-0.082-0.004-0.122-0.012-0.121-0.024-0.232-0.084-0.32-0.171-0.029-0.029-0.055-0.061-0.077-0.095s-0.042-0.071-0.057-0.108c-0.016-0.038-0.028-0.077-0.036-0.117s-0.013-0.081-0.013-0.122c0-0.041 0.004-0.082 0.013-0.122s0.020-0.079 0.036-0.117c0.016-0.038 0.034-0.074 0.057-0.108s0.049-0.066 0.077-0.095c0.029-0.029 0.061-0.055 0.095-0.078s0.070-0.042 0.108-0.057c0.038-0.016 0.077-0.027 0.117-0.036 0.080-0.016 0.163-0.016 0.244 0 0.040 0.008 0.079 0.020 0.117 0.036s0.074 0.035 0.108 0.057zM28.563 28.38c1.614-0.549 2.187-1.18 2.187-1.553v-3.31c-0.438 0.291-1.018 0.576-1.784 0.836-1.747 0.594-4.057 0.922-6.504 0.922s-4.757-0.327-6.504-0.922c-0.766-0.261-1.347-0.545-1.784-0.836v2.989l-0 0.001v0.32c0 0.373 0.573 1.004 2.187 1.553 1.62 0.551 3.787 0.855 6.101 0.855s4.481-0.304 6.101-0.855z"></path>
</symbol>
</defs>
<symbol id="transportation" viewBox="0 0 32 32">
<path fill="#f1cdb3" style="fill: var(--color1, #f1cdb3)" d="M21.464 0.625c0-0.345 0.28-0.625 0.625-0.625s0.625 0.28 0.625 0.625v1.046c0 0.345-0.28 0.625-0.625 0.625s-0.625-0.28-0.625-0.625v-1.046zM25.594 1.745c0.272-0.213 0.664-0.166 0.878 0.106s0.166 0.664-0.106 0.878l-0.872 0.685c-0.11 0.087-0.246 0.134-0.386 0.133-0.095 0-0.188-0.021-0.274-0.063s-0.16-0.102-0.218-0.176c-0.213-0.272-0.166-0.664 0.106-0.878l0.872-0.685zM19.456 2.43l-0.872-0.685c-0.065-0.051-0.138-0.088-0.218-0.11s-0.162-0.028-0.243-0.019c-0.081 0.010-0.16 0.036-0.232 0.076s-0.134 0.094-0.185 0.159c-0.213 0.271-0.166 0.664 0.106 0.877l0.872 0.685c0.11 0.087 0.246 0.134 0.386 0.133 0.095 0 0.188-0.021 0.274-0.063s0.16-0.102 0.218-0.176c0.213-0.271 0.166-0.664-0.106-0.877zM29.348 6.779h-3.746v-0.108c0-1.938-1.576-3.514-3.514-3.514s-3.514 1.576-3.514 3.514v0.108h-4.399c-1.448 0-2.627 1.178-2.627 2.627v2.968h-3.939c-0.94 0-1.775 0.563-2.128 1.434-0.005 0.013-0.010 0.026-0.014 0.039l-2.273 6.884c-0.021 0.012-0.047 0.027-0.080 0.043-0.13 0.065-0.373 0.164-0.791 0.266-0.664 0.161-1.254 0.54-1.676 1.078s-0.65 1.201-0.649 1.884v3.252c0 1.089 0.886 1.975 1.975 1.975l2.786 0c0.294 1.576 1.679 2.772 3.338 2.772s3.044-1.197 3.338-2.772l9.826 0c0.294 1.575 1.679 2.772 3.338 2.772s3.044-1.196 3.338-2.772l1.769 0c1.354 0 2.264-0.91 2.264-2.264v-16.254c0-3.547-1.837-3.93-2.627-3.93zM19.825 6.672c0-1.248 1.016-2.264 2.264-2.264s2.264 1.015 2.264 2.264v0.108h-4.528v-0.108zM29.71 27.978h-1.768c-0.002-0.011-0.005-0.022-0.007-0.033-0.015-0.073-0.032-0.146-0.051-0.219-0.009-0.032-0.017-0.063-0.027-0.095-0.006-0.020-0.012-0.039-0.018-0.058-0.011-0.033-0.022-0.065-0.033-0.098-0.006-0.017-0.012-0.035-0.018-0.052-0.014-0.037-0.029-0.074-0.044-0.111-0.005-0.012-0.009-0.023-0.014-0.035-0.021-0.049-0.042-0.097-0.065-0.144-0.003-0.006-0.006-0.012-0.009-0.017-0.020-0.041-0.041-0.081-0.062-0.122-0.008-0.015-0.016-0.029-0.024-0.043-0.017-0.031-0.035-0.062-0.053-0.092-0.010-0.016-0.020-0.033-0.030-0.049-0.028-0.045-0.057-0.089-0.087-0.133s-0.060-0.085-0.092-0.127c-0.020-0.026-0.040-0.051-0.060-0.077-0.012-0.015-0.024-0.030-0.037-0.045-0.022-0.026-0.045-0.053-0.068-0.078-0.011-0.013-0.022-0.026-0.034-0.038-0.029-0.031-0.058-0.062-0.088-0.092-0.006-0.007-0.013-0.013-0.019-0.020-0.037-0.037-0.075-0.073-0.113-0.108-0.008-0.008-0.017-0.015-0.025-0.022-0.030-0.027-0.061-0.054-0.092-0.080-0.014-0.011-0.028-0.022-0.041-0.033-0.026-0.021-0.053-0.042-0.080-0.063-0.016-0.012-0.032-0.024-0.048-0.035-0.068-0.050-0.138-0.097-0.209-0.141-0.017-0.011-0.035-0.022-0.053-0.032-0.028-0.017-0.056-0.032-0.084-0.048-0.017-0.010-0.035-0.020-0.052-0.029-0.031-0.017-0.062-0.032-0.093-0.048-0.016-0.008-0.031-0.016-0.046-0.023-0.041-0.020-0.082-0.038-0.124-0.056-0.006-0.003-0.013-0.006-0.019-0.009-0.048-0.020-0.097-0.040-0.146-0.058-0.014-0.005-0.028-0.010-0.043-0.015-0.035-0.012-0.071-0.025-0.107-0.036-0.019-0.006-0.038-0.011-0.057-0.017-0.032-0.009-0.064-0.019-0.096-0.027-0.021-0.005-0.041-0.011-0.062-0.016-0.053-0.013-0.105-0.025-0.158-0.035-0.031-0.006-0.063-0.012-0.095-0.017-0.022-0.004-0.043-0.007-0.065-0.010-0.033-0.005-0.066-0.009-0.099-0.012-0.021-0.003-0.042-0.005-0.063-0.007-0.037-0.003-0.073-0.006-0.11-0.008-0.018-0.001-0.036-0.003-0.054-0.004-0.055-0.003-0.11-0.004-0.165-0.004s-0.111 0.002-0.165 0.004c-0.018 0.001-0.036 0.003-0.054 0.004-0.037 0.002-0.073 0.005-0.11 0.008-0.021 0.002-0.042 0.005-0.063 0.007-0.033 0.004-0.066 0.008-0.099 0.013-0.022 0.003-0.044 0.007-0.065 0.010-0.053 0.009-0.107 0.019-0.16 0.030-0.031 0.007-0.062 0.014-0.093 0.022-0.021 0.005-0.042 0.010-0.063 0.016-0.032 0.008-0.063 0.018-0.095 0.027-0.019 0.006-0.039 0.011-0.058 0.017-0.035 0.011-0.070 0.023-0.105 0.035-0.015 0.005-0.030 0.010-0.045 0.015-0.049 0.018-0.098 0.037-0.146 0.058-0.008 0.003-0.016 0.007-0.024 0.011-0.040 0.017-0.080 0.035-0.119 0.054-0.017 0.008-0.033 0.017-0.049 0.025-0.030 0.015-0.060 0.030-0.090 0.046-0.018 0.010-0.036 0.020-0.055 0.030-0.027 0.015-0.054 0.031-0.081 0.047-0.063 0.038-0.125 0.078-0.186 0.12-0.025 0.017-0.050 0.035-0.075 0.053-0.017 0.012-0.034 0.025-0.051 0.038-0.026 0.019-0.051 0.040-0.076 0.060-0.015 0.012-0.030 0.024-0.045 0.036-0.029 0.024-0.057 0.049-0.085 0.074-0.010 0.009-0.021 0.018-0.031 0.027-0.038 0.035-0.075 0.070-0.111 0.106-0.009 0.009-0.018 0.019-0.027 0.028-0.027 0.027-0.054 0.055-0.080 0.084-0.013 0.014-0.026 0.029-0.038 0.043-0.021 0.024-0.043 0.048-0.063 0.073-0.014 0.016-0.027 0.033-0.040 0.049-0.019 0.024-0.038 0.048-0.057 0.072-0.045 0.059-0.087 0.119-0.128 0.18-0.017 0.026-0.034 0.052-0.050 0.078-0.011 0.018-0.023 0.036-0.033 0.054-0.017 0.028-0.033 0.057-0.049 0.085-0.009 0.017-0.019 0.033-0.028 0.050-0.019 0.036-0.038 0.072-0.056 0.108-0.005 0.010-0.011 0.020-0.015 0.031-0.022 0.047-0.044 0.094-0.064 0.142-0.006 0.015-0.012 0.029-0.018 0.044-0.014 0.034-0.027 0.067-0.040 0.102-0.007 0.019-0.014 0.039-0.020 0.058-0.011 0.030-0.021 0.061-0.031 0.092-0.007 0.021-0.013 0.042-0.019 0.063-0.015 0.051-0.029 0.103-0.042 0.155-0.007 0.030-0.014 0.060-0.021 0.091-0.005 0.022-0.010 0.044-0.014 0.066-0.002 0.010-0.005 0.021-0.007 0.031l-9.825-0c-0.002-0.011-0.005-0.021-0.007-0.032-0.004-0.021-0.009-0.043-0.013-0.064-0.018-0.084-0.039-0.167-0.064-0.249-0.006-0.020-0.012-0.041-0.019-0.061-0.010-0.031-0.021-0.063-0.032-0.094-0.007-0.019-0.013-0.037-0.020-0.056-0.013-0.035-0.027-0.069-0.041-0.104-0.006-0.014-0.011-0.028-0.017-0.042-0.020-0.048-0.042-0.095-0.064-0.142-0.005-0.009-0.010-0.019-0.014-0.028-0.018-0.037-0.037-0.074-0.057-0.111-0.009-0.017-0.018-0.033-0.028-0.049-0.016-0.029-0.033-0.058-0.050-0.086-0.011-0.018-0.022-0.035-0.033-0.053-0.016-0.026-0.033-0.052-0.050-0.078-0.041-0.061-0.084-0.121-0.128-0.18-0.019-0.024-0.038-0.048-0.057-0.072-0.013-0.016-0.026-0.033-0.040-0.049-0.021-0.025-0.042-0.049-0.063-0.073-0.013-0.015-0.025-0.029-0.039-0.044-0.026-0.028-0.052-0.055-0.079-0.083-0.009-0.009-0.018-0.019-0.028-0.029-0.036-0.036-0.073-0.072-0.111-0.106-0.011-0.010-0.021-0.019-0.032-0.028-0.028-0.025-0.056-0.049-0.085-0.073-0.015-0.013-0.031-0.025-0.046-0.037-0.025-0.020-0.050-0.040-0.075-0.059-0.017-0.013-0.034-0.025-0.051-0.038-0.025-0.018-0.050-0.036-0.075-0.053-0.043-0.029-0.087-0.058-0.131-0.086-0.018-0.011-0.037-0.023-0.055-0.034-0.027-0.016-0.054-0.031-0.081-0.046-0.018-0.010-0.036-0.021-0.055-0.030-0.030-0.016-0.059-0.031-0.089-0.046-0.017-0.008-0.033-0.017-0.050-0.025-0.039-0.018-0.078-0.036-0.117-0.053-0.008-0.004-0.017-0.008-0.025-0.011-0.048-0.020-0.097-0.039-0.146-0.058-0.015-0.006-0.030-0.010-0.046-0.016-0.034-0.012-0.069-0.024-0.104-0.035-0.019-0.006-0.039-0.012-0.058-0.017-0.031-0.009-0.063-0.018-0.094-0.027-0.021-0.006-0.042-0.011-0.063-0.016-0.083-0.021-0.168-0.038-0.252-0.052-0.022-0.004-0.044-0.007-0.065-0.010-0.033-0.005-0.066-0.009-0.099-0.013-0.021-0.002-0.042-0.005-0.063-0.007-0.037-0.003-0.073-0.006-0.11-0.008-0.018-0.001-0.036-0.003-0.054-0.004-0.055-0.003-0.11-0.004-0.165-0.004s-0.111 0.002-0.165 0.004c-0.018 0.001-0.036 0.003-0.054 0.004-0.037 0.002-0.073 0.005-0.11 0.008-0.021 0.002-0.042 0.005-0.063 0.007-0.033 0.004-0.066 0.008-0.098 0.013-0.022 0.003-0.044 0.007-0.066 0.010-0.053 0.009-0.107 0.019-0.159 0.030-0.031 0.007-0.062 0.014-0.093 0.021-0.021 0.005-0.042 0.010-0.063 0.016-0.031 0.008-0.063 0.017-0.094 0.027-0.020 0.006-0.039 0.011-0.059 0.018-0.034 0.011-0.068 0.023-0.102 0.035-0.016 0.006-0.032 0.011-0.047 0.016-0.049 0.018-0.097 0.037-0.145 0.057-0.010 0.004-0.019 0.009-0.029 0.013-0.038 0.017-0.076 0.034-0.114 0.051-0.018 0.008-0.035 0.017-0.052 0.026-0.029 0.014-0.058 0.029-0.087 0.045-0.019 0.010-0.038 0.021-0.056 0.031-0.027 0.015-0.053 0.030-0.079 0.045-0.045 0.027-0.089 0.054-0.132 0.083-0.019 0.012-0.037 0.025-0.056 0.038-0.024 0.017-0.049 0.034-0.073 0.052-0.018 0.013-0.036 0.026-0.053 0.039-0.025 0.019-0.049 0.038-0.073 0.057-0.016 0.013-0.033 0.026-0.048 0.039-0.027 0.023-0.053 0.046-0.080 0.069-0.012 0.011-0.025 0.021-0.037 0.032-0.037 0.034-0.074 0.069-0.11 0.105-0.011 0.011-0.022 0.023-0.033 0.034-0.025 0.026-0.050 0.051-0.074 0.077-0.014 0.015-0.028 0.031-0.041 0.047-0.020 0.023-0.041 0.046-0.060 0.070-0.014 0.017-0.028 0.034-0.042 0.052-0.019 0.023-0.037 0.046-0.055 0.069-0.031 0.041-0.062 0.083-0.091 0.126-0.013 0.019-0.026 0.038-0.038 0.056-0.016 0.025-0.032 0.050-0.048 0.075-0.012 0.019-0.024 0.037-0.035 0.056-0.016 0.027-0.032 0.054-0.047 0.082-0.010 0.018-0.020 0.035-0.030 0.053-0.018 0.034-0.035 0.068-0.052 0.102-0.006 0.012-0.013 0.024-0.019 0.037-0.022 0.046-0.043 0.093-0.064 0.14-0.007 0.016-0.013 0.033-0.020 0.049-0.013 0.032-0.026 0.064-0.038 0.097-0.007 0.020-0.014 0.040-0.021 0.060-0.010 0.030-0.021 0.059-0.030 0.089-0.007 0.021-0.013 0.043-0.020 0.065-0.009 0.029-0.017 0.058-0.025 0.088-0.014 0.052-0.027 0.104-0.038 0.156-0.005 0.023-0.010 0.045-0.014 0.068-0.002 0.010-0.005 0.020-0.006 0.031h-2.785c-0.4 0-0.725-0.325-0.725-0.725v-3.252c-0.001-0.403 0.134-0.794 0.383-1.111s0.597-0.541 0.988-0.636c0.356-0.087 0.662-0.186 0.912-0.296h22.7c0.345 0 0.625-0.28 0.625-0.625s-0.28-0.625-0.625-0.625h-13.433v-11.301c0-0.759 0.618-1.377 1.377-1.377h15.172c1.198 0 1.377 1.679 1.377 2.68v16.254c0 0.883-0.636 1.014-1.014 1.014zM25.567 11.553c0.769 0.173 1.345 0.861 1.345 1.682 0 0.694-0.413 1.293-1.005 1.567 0.418 0.517 0.661 1.17 0.661 1.862 0 1.632-1.328 2.96-2.96 2.96-0.535-0-1.060-0.145-1.519-0.42-0.457 0.273-0.982 0.42-1.519 0.42-1.632 0-2.96-1.328-2.96-2.96 0-0.691 0.244-1.345 0.661-1.862-0.593-0.273-1.005-0.872-1.005-1.567 0-0.82 0.576-1.508 1.345-1.681-0.004-0.045-0.007-0.090-0.008-0.136-0.010-0.511 0.184-0.995 0.545-1.364 0.364-0.371 0.87-0.584 1.39-0.584 0.635 0 1.2 0.308 1.553 0.783 0.353-0.475 0.918-0.783 1.551-0.783 0.524 0 1.035 0.216 1.4 0.591 0.359 0.369 0.549 0.853 0.535 1.361-0.001 0.044-0.005 0.087-0.009 0.131zM20.267 10.774c-0.085 0.036-0.163 0.089-0.228 0.155-0.124 0.127-0.191 0.291-0.187 0.464 0.007 0.378 0.319 0.691 0.695 0.697 0.088 0.001 0.176-0.016 0.257-0.049 0.020-0.010 0.040-0.020 0.061-0.029 0.055-0.030 0.106-0.067 0.151-0.111 0.066-0.065 0.118-0.142 0.153-0.227s0.053-0.176 0.053-0.268c-0-0.378-0.308-0.686-0.685-0.686-0.093-0-0.185 0.018-0.27 0.054zM24.145 10.932c-0.131-0.135-0.315-0.212-0.504-0.212-0.376 0-0.683 0.308-0.685 0.687-0.001 0.187 0.071 0.361 0.201 0.49 0.046 0.045 0.098 0.084 0.155 0.114 0.011 0.005 0.022 0.011 0.033 0.016 0.090 0.041 0.189 0.063 0.288 0.063 0.371-0.004 0.682-0.319 0.693-0.703 0.005-0.168-0.060-0.33-0.182-0.455zM18.989 12.76c-0.261 0-0.474 0.213-0.474 0.474s0.213 0.474 0.474 0.474c0.17 0 0.319-0.091 0.403-0.226 0.015-0.032 0.030-0.064 0.045-0.095 0.017-0.048 0.026-0.1 0.026-0.153 0-0.262-0.213-0.474-0.474-0.474zM24.785 13.483c0.084 0.135 0.233 0.226 0.403 0.226 0.261 0 0.474-0.213 0.474-0.474s-0.213-0.474-0.474-0.474c-0.262 0-0.474 0.213-0.474 0.474 0 0.052 0.009 0.104 0.026 0.153 0.016 0.031 0.031 0.063 0.045 0.095zM22.496 17.961c0.31 0.266 0.704 0.412 1.112 0.412 0.943 0 1.71-0.767 1.71-1.71 0-0.715-0.451-1.36-1.121-1.606-0.11-0.040-0.206-0.111-0.278-0.203s-0.116-0.204-0.128-0.32c-0.017-0.172-0.061-0.34-0.129-0.499-0.022-0.042-0.043-0.085-0.062-0.13-0.166-0.313-0.425-0.566-0.742-0.724-0.027-0.012-0.054-0.024-0.081-0.038-0.211-0.092-0.443-0.143-0.688-0.143-0.237-0-0.472 0.049-0.689 0.143-0.027 0.013-0.053 0.026-0.081 0.038-0.316 0.158-0.575 0.411-0.741 0.724-0.019 0.044-0.040 0.087-0.062 0.13-0.068 0.159-0.111 0.327-0.129 0.499-0.012 0.117-0.056 0.227-0.128 0.32s-0.168 0.163-0.278 0.203c-0.671 0.246-1.121 0.892-1.121 1.606 0 0.943 0.767 1.71 1.71 1.71 0.408-0 0.803-0.146 1.112-0.412 0.113-0.097 0.258-0.151 0.407-0.151s0.294 0.053 0.407 0.151zM6.648 14.26c0.080-0.189 0.214-0.35 0.385-0.464s0.372-0.173 0.577-0.173h3.939v7.084h-7.030l2.129-6.447zM29.356 21.214c-0.008-0.040-0.020-0.079-0.036-0.117s-0.035-0.074-0.058-0.108c-0.023-0.034-0.048-0.066-0.078-0.095s-0.061-0.055-0.095-0.078c-0.068-0.045-0.145-0.077-0.225-0.093s-0.163-0.016-0.244 0c-0.040 0.008-0.079 0.020-0.118 0.036s-0.074 0.035-0.107 0.058c-0.034 0.023-0.066 0.049-0.095 0.078s-0.055 0.061-0.078 0.095c-0.023 0.034-0.042 0.070-0.057 0.108s-0.028 0.077-0.036 0.117c-0.008 0.040-0.012 0.081-0.012 0.122s0.004 0.082 0.012 0.122c0.008 0.039 0.020 0.079 0.036 0.117s0.035 0.074 0.058 0.108c0.022 0.034 0.049 0.066 0.077 0.095s0.061 0.055 0.095 0.078c0.034 0.023 0.070 0.041 0.107 0.057s0.078 0.028 0.118 0.036c0.040 0.008 0.081 0.013 0.122 0.013s0.082-0.004 0.122-0.013c0.040-0.008 0.079-0.020 0.117-0.036s0.074-0.034 0.108-0.057c0.034-0.023 0.066-0.049 0.095-0.078s0.055-0.061 0.078-0.095c0.022-0.034 0.042-0.070 0.058-0.108s0.027-0.077 0.036-0.117c0.008-0.041 0.012-0.082 0.012-0.122s-0.004-0.082-0.012-0.122zM8.1 30.75c-1.184 0-2.147-0.963-2.147-2.147 0-0.015 0.001-0.029 0.001-0.044 0-0.022 0.001-0.045 0.002-0.067 0-0.004 0.001-0.007 0.001-0.010 0.063-1.128 1-2.026 2.143-2.026 1.034 0 1.9 0.735 2.102 1.711l0.001 0.004c0.007 0.033 0.013 0.066 0.018 0.1l0.001 0.006c0.004 0.024 0.007 0.049 0.009 0.074 0.001 0.011 0.003 0.022 0.004 0.033 0.002 0.019 0.003 0.039 0.004 0.058 0.001 0.017 0.003 0.034 0.004 0.051s0.001 0.035 0.001 0.053c0 0.019 0.001 0.038 0.001 0.058 0 1.184-0.963 2.147-2.147 2.147zM24.603 30.75c-1.184 0-2.147-0.963-2.147-2.147 0-0.028 0.001-0.056 0.002-0.083 0-0.009 0-0.018 0.001-0.027 0.001-0.021 0.003-0.041 0.005-0.061 0.001-0.016 0.002-0.032 0.004-0.048 0.001-0.007 0.002-0.013 0.003-0.020 0.007-0.065 0.017-0.13 0.030-0.193 0-0.002 0.001-0.004 0.001-0.006 0.203-0.974 1.068-1.709 2.102-1.709 0.296 0 0.578 0.060 0.835 0.169 0.77 0.326 1.312 1.090 1.312 1.978 0 1.184-0.963 2.147-2.147 2.147z"></path>
</symbol>

<symbol id="arrow-left" viewBox="0 0 75 32">
<path d="M74.667 10.667v10.667h-58.667v10.667l-16-16 16-16v10.667h58.667z"></path>
</symbol>
<symbol id="arrow-right" viewBox="0 0 75 32">
<path d="M0 21.333v-10.667h58.667v-10.667l16 16-16 16v-10.667h-58.667z"></path>
</symbol>

</svg>
